<?xml version="1.0" encoding="utf-8" ?>
<svg baseProfile="full" height="200mm" version="1.1" viewBox="0,0,200,200" width="200mm" xmlns="http://www.w3.org/2000/svg" xmlns:ev="http://www.w3.org/2001/xml-events" xmlns:xlink="http://www.w3.org/1999/xlink"><defs /><rect fill="#1a1a1a" height="200" width="200" x="0" y="0" /><rect fill="#1a1a1a" height="200" width="180" x="10" y="0" /><text alignment-baseline="middle" fill="#e1ed5e" style="dominant-baseline: central; font-size:9.0px; font-family:Arial;" text-anchor="middle" x="100.0" y="100.0">2026</text><line stroke="#e1ed5e" stroke-width="0.3" x1="100.0" x2="100.0" y1="15.0" y2="10.0" /><path d="M 100.0 14.0 a86.0,86.0 0 0,1 42.46469731375804,11.215312516191453" fill="none" id="id25" stroke="none" /><text fill="#e1ed5e" style="font-size:6.75px; font-family:Arial;" text-anchor="middle"><textPath startOffset="22.20632615414155" xlink:href="#id25">January</textPath></text><path d="M 100.0 79.0 l 0.0 -54.01544055143985 a75.01544055143985,75.01544055143985 0 0,0 1.291267495398778,0.011114347000594684 l -0.9297870161262496 54.00743758104782" fill="red" stroke="none" /><path d="M 101.80526077348638 79.07773832637324 l 3.412493413305853 -39.54945523733314 a60.69640438208067,60.69640438208067 0 0,0 1.0401481339562109,0.09877459855448371 l -4.092766674352308 39.48485509426348" fill="red" stroke="none" /><path d="M 102.88285421437855 79.19881850522331 l 6.952724173060018 -50.16725323313599 a71.64675379907627,71.64675379907627 0 0,0 1.220147695720987,0.17981805319868438 l -7.81524084920966 50.04014069577633" fill="red" stroke="none" /><path d="M 103.2404852339499 79.25152402106235 l 7.832387779833604 -50.1499306353928 a71.75787467052177,71.75787467052177 0 0,0 1.2187589583105762,0.20110567085096456 l -8.694475944283056 50.00767870160221" fill="red" stroke="none" /><path d="M 105.36241919743992 79.69619591428918 l 12.504500821688346 -47.34596933309119 a69.96941242132293,69.96941242132293 0 0,0 1.1618324667186672,0.31757270162990414 l -13.317631177630725 47.123710090634994" fill="red" stroke="none" /><path d="M 106.0581310904928 79.89281104454417 l 8.010600336892313 -26.587515557942442 a48.768069815909975,48.768069815909975 0 0,0 0.8016881450055731,0.24908840907115826 l -8.467073854608605 26.445687013988763" fill="red" stroke="none" /><path d="M 106.74666289553966 80.11325718540242 l 13.60326906909863 -40.09755898635216 a63.34221494006054,63.34221494006054 0 0,0 1.0295160886445158,0.3591779482497649 l -14.29146716180642 39.85746018493019" fill="red" stroke="none" /><path d="M 107.08798089147638 80.2323363322302 l 17.092161284221078 -47.668313557118225 a71.64000488492835,71.64000488492835 0 0,0 1.1572169447003169,0.42621276688866105 l -17.91016055469397 47.36703752242324" fill="red" stroke="none" /><path d="M 108.09893153111575 80.62456947434976 l 16.088913806350718 -38.49021694904709 a62.71750170195831,62.71750170195831 0 0,0 0.9924783088749664,0.42492741653090943 l -16.749075873016 38.20757000455339" fill="red" stroke="none" /><path d="M 109.08828744355905 81.06846463323043 l 15.132134628170581 -31.521289755305514 a55.96531433067644,55.96531433067644 0 0,0 0.8648739310046357,0.4243898818377316 l -15.672479826185647 31.256144713332947" fill="red" stroke="none" /><line stroke="#e1ed5e" stroke-width="0.3" x1="143.23703022742887" x2="145.7803849466894" y1="26.81831364943548" y2="22.513508569990506" /><path d="M 143.74570117128098 25.957352633546492 a86.0,86.0 0 0,1 28.547481713284135,27.462654790039103" fill="none" id="id26" stroke="none" /><text fill="#e1ed5e" style="font-size:6.75px; font-family:Arial;" text-anchor="middle"><textPath startOffset="19.985693538727396" xlink:href="#id26">February</textPath></text><path d="M 110.68208982089419 81.91981866633111 l 32.04626946268258 -54.24054400100664 a84.0,84.0 0 0,0 1.23855173512945,0.7462135621655417 l -32.97518326402967 53.68088382938249" fill="red" stroke="none" /><path d="M 112.19680574252982 82.90503203632743 l 24.282433708416363 -34.03410983893235 a62.8085782983845,62.8085782983845 0 0,0 0.87469823316773,0.6355054655675013 l -24.86467725793788 33.61108513854818" fill="red" stroke="none" /><path d="M 114.16331599549186 84.49514656593476 l 11.636465966321326 -12.738662284716957 a38.25343029630412,38.25343029630412 0 0,0 0.4823431790602232,0.44828541727780236 l -11.854017029176397 12.536472281364514" fill="red" stroke="none" /><line stroke="#e1ed5e" stroke-width="0.3" x1="172.23445277983987" x2="176.4835382374775" y1="55.19839476539836" y2="52.563006222186495" /><path d="M 173.08426987136738 54.67131705675599 a86.0,86.0 0 0,1 12.851231095245387,41.99856678651699" fill="none" id="id27" stroke="none" /><text fill="#e1ed5e" style="font-size:6.75px; font-family:Arial;" text-anchor="middle"><textPath startOffset="22.20632615414155" xlink:href="#id27">March</textPath></text><line stroke="#e1ed5e" stroke-width="0.3" x1="184.98032266829074" x2="189.97916517819016" y1="98.17113171792111" y2="98.06355123074" /><path d="M 185.9800911702706 98.14961562048488 a86.0,86.0 0 0,1 -9.607161424134198,41.387399972396054" fill="none" id="id28" stroke="none" /><text fill="#e1ed5e" style="font-size:6.75px; font-family:Arial;" text-anchor="middle"><textPath startOffset="21.466115282336823" xlink:href="#id28">April</textPath></text><line stroke="#e1ed5e" stroke-width="0.3" x1="174.80103733775053" x2="179.2010983576182" y1="140.37084112569926" y2="142.7455964860345" /><path d="M 175.68104954172406 140.8457921977663 a86.0,86.0 0 0,1 -30.038265399797805,32.042727171017184" fill="none" id="id29" stroke="none" /><text fill="#e1ed5e" style="font-size:6.75px; font-family:Arial;" text-anchor="middle"><textPath startOffset="22.206326154141568" xlink:href="#id29">May</textPath></text><line stroke="#e1ed5e" stroke-width="0.3" x1="143.8653032363475" x2="146.44561519142675" y1="172.8068346515853" y2="177.08958963109032" /><path d="M 144.38136562736335 173.6633856474863 a86.0,86.0 0 0,1 -40.68145358897372,12.25698825130547" fill="none" id="id30" stroke="none" /><text fill="#e1ed5e" style="font-size:6.75px; font-family:Arial;" text-anchor="middle"><textPath startOffset="21.466115282336833" xlink:href="#id30">June</textPath></text><line stroke="#e1ed5e" stroke-width="0.3" x1="102.19456741930631" x2="102.32365962044197" y1="184.97166512339345" y2="189.96999836594603" /><path d="M 102.22038585953345 185.97133177190398 a86.0,86.0 0 0,1 -42.740103519485714,-10.115201625700543" fill="none" id="id31" stroke="none" /><text fill="#e1ed5e" style="font-size:6.75px; font-family:Arial;" text-anchor="middle"><textPath startOffset="22.20632615414155" xlink:href="#id31">July</textPath></text><line stroke="#e1ed5e" stroke-width="0.3" x1="58.666819895761336" x2="56.23545636021788" y1="174.27360380694188" y2="178.64263932499728" /><path d="M 58.180547188652646 175.14741091055294 a86.0,86.0 0 0,1 -31.652253787137756,-30.449443065178592" fill="none" id="id32" stroke="none" /><text fill="#e1ed5e" style="font-size:6.75px; font-family:Arial;" text-anchor="middle"><textPath startOffset="22.20632615414155" xlink:href="#id32">August</textPath></text><line stroke="#e1ed5e" stroke-width="0.3" x1="26.63291911575756" x2="22.317208475507996" y1="142.92168965132927" y2="145.44649492493687" /><path d="M 25.769776987707644 143.4266507060508 a86.0,86.0 0 0,1 -11.730757126820373,-40.83630448921669" fill="none" id="id33" stroke="none" /><text fill="#e1ed5e" style="font-size:6.75px; font-family:Arial;" text-anchor="middle"><textPath startOffset="21.46611528233685" xlink:href="#id33">September</textPath></text><line stroke="#e1ed5e" stroke-width="0.3" x1="15.007084014347285" x2="10.007500721073583" y1="101.09737516637583" y2="101.16192664675087" /><path d="M 14.007167355692545 101.11028546245083 a86.0,86.0 0 0,1 10.666146001902534,-42.60595125391555" fill="none" id="id34" stroke="none" /><text fill="#e1ed5e" style="font-size:6.75px; font-family:Arial;" text-anchor="middle"><textPath startOffset="22.20632615414155" xlink:href="#id34">October</textPath></text><line stroke="#e1ed5e" stroke-width="0.3" x1="26.266209847984243" x2="21.928928074336255" y1="57.711370442889674" y2="55.22380399835377" /><path d="M 25.398753493254645 57.213857153982495 a86.0,86.0 0 0,1 29.58750427330803,-30.492523968695096" fill="none" id="id35" stroke="none" /><text fill="#e1ed5e" style="font-size:6.75px; font-family:Arial;" text-anchor="middle"><textPath startOffset="21.46611528233685" xlink:href="#id35">November</textPath></text><line stroke="#e1ed5e" stroke-width="0.3" x1="56.762969772571076" x2="54.21961505331055" y1="26.818313649435495" y2="22.513508569990535" /><path d="M 56.25429882871897 25.957352633546506 a86.0,86.0 0 0,1 42.265352541879196,-11.944610805530505" fill="none" id="id36" stroke="none" /><text fill="#e1ed5e" style="font-size:6.75px; font-family:Arial;" text-anchor="middle"><textPath startOffset="22.20632615414155" xlink:href="#id36">December</textPath></text></svg>