<?xml version="1.0" encoding="utf-8" ?>
<svg baseProfile="full" height="200mm" version="1.1" viewBox="0,0,200,200" width="200mm" xmlns="http://www.w3.org/2000/svg" xmlns:ev="http://www.w3.org/2001/xml-events" xmlns:xlink="http://www.w3.org/1999/xlink"><defs /><rect fill="#1a1a1a" height="200" width="200" x="0" y="0" /><text alignment-baseline="middle" fill="#e1ed5e" style="dominant-baseline: central; font-size:9.0px; font-family:Arial;" text-anchor="middle" x="100.0" y="100.0">2025</text><line stroke="#e1ed5e" stroke-width="0.3" x1="100.0" x2="100.0" y1="15.0" y2="10.0" /><path d="M 100.0 14.0 a86.0,86.0 0 0,1 42.46469731375804,11.215312516191453" fill="none" id="id13" stroke="none" /><text fill="#e1ed5e" style="font-size:6.75px; font-family:Arial;" text-anchor="middle"><textPath startOffset="22.20632615414155" xlink:href="#id13">January</textPath></text><path d="M 100.72285384407766 79.0124445844662 l 0.6229158531119346 -18.085925797465467 a39.096649858785604,39.096649858785604 0 0,0 0.6723863580649889,0.028954370980554086 l -0.9341430435662551 18.072523699960716" fill="#ffd513" stroke="none" /><path d="M 101.08401301168833 79.027996857942 l 1.2653872974001055 -24.480985090449543 a45.51366631108522,45.51366631108522 0 0,0 0.7820503857852176,0.047175414957529575 l -1.686599732024935 24.45557640611171" fill="#d9ff1c" stroke="none" /><path d="M 101.80526077348638 79.07773832637324 l 1.572277472916479 -18.22207694037365 a39.289782515730955,39.289782515730955 0 0,0 0.6733050233095534,0.0639384249329608 l -1.8857076233162766 18.192312970925514" fill="#ffd714" stroke="none" /><path d="M 102.16513564639614 79.11191278185805 l 1.5428335161739943 -14.884444354586549 a35.96419122450035,35.96419122450035 0 0,0 0.6152159509135176,0.06912668037990198 l -1.7988161705972372 14.855681720736046" fill="#ffab0f" stroke="none" /><path d="M 102.52436894288641 79.15227682838746 l 2.188525272097218 -18.074128647214117 a39.20614646823029,39.20614646823029 0 0,0 0.6692774314678421,0.08689141899542367 l -2.499317432072906 18.033778905054554" fill="#ffd614" stroke="none" /><path d="M 103.2404852339499 79.25152402106235 l 2.8814449155820907 -18.449579707762762 a39.67323528997119,39.67323528997119 0 0,0 0.6738230631387246,0.11118657895668418 l -3.19859718485969 18.397246865866453" fill="#ffdc14" stroke="none" /><path d="M 103.59715602781102 79.31037775812273 l 2.4088285855658054 -13.854765569098689 a35.06260943528339,35.06260943528339 0 0,0 0.5937349991452493,0.10850127603518785 l -2.6469587058139554 13.811248811712762" fill="#ff9f0e" stroke="none" /><path d="M 103.95276090670814 79.375362276772 l 5.0163277058148985 -26.174095543660275 a47.65045630342533,47.65045630342533 0 0,0 0.8042343961025186,0.1613218540137806 l -5.466128511384542 26.083869733569287" fill="#bfff1e" stroke="none" /><path d="M 104.66035177308747 79.52364482259891 l 4.071448455943331 -17.88886949517664 a39.346344168385826,39.346344168385826 0 0,0 0.6591005658599228,0.15598780925382924 l -4.378772708765777 17.81613577378194" fill="#ffd814" stroke="none" /><path d="M 105.01212808612495 79.60689891045804 l 2.880546892289287 -11.720228006590672 a33.06902211967274,33.06902211967274 0 0,0 0.5516087861142691,0.1406173616624862 l -3.0818645670885814 11.668907648759319" fill="#ff840c" stroke="none" /><path d="M 105.36241919743992 79.69619591428918 l 4.542083492040222 -17.19775533538174 a38.78744813131764,38.78744813131764 0 0,0 0.6440602397626807,0.1760459930436475 l -4.837441621026613 17.117022801511798" fill="#ffd013" stroke="none" /><path d="M 106.40334571778207 80.00007090966166 l 10.2950098687222 -32.15498216611908 a54.76285098004201,54.76285098004201 0 0,0 0.8952870211631946,0.2951620548274948 l -10.846979712127812 31.97300638703235" fill="#6fff27" stroke="none" /><path d="M 106.74666289553966 80.11325718540242 l 4.8131190923820615 -14.18734906549309 a35.9815549561319,35.9815549561319 0 0,0 0.5848167727768631,0.2040310888435008 l -5.056617869222198 14.102397123477381" fill="#ffab0f" stroke="none" /><path d="M 107.76421540070413 80.48803036053334 l 6.845255742688493 -17.202565273190352 a39.51447482812257,39.51447482812257 0 0,0 0.6298158147483931,0.2569176845691961 l -7.140355427025273 17.082186702437575" fill="#ffda14" stroke="none" /><path d="M 108.43124777332544 80.76684994638697 l 6.2190738952161455 -14.186794723270548 a36.490062124935974,36.490062124935974 0 0,0 0.5730988089077126,0.25713273012758414 l -6.462354822590639 14.077641662626432" fill="#ffb210" stroke="none" /><path d="M 108.76106565485865 80.91482961587045 l 12.97141608809238 -28.257028986809534 a52.092078130800715,52.092078130800715 0 0,0 0.811698237289605,0.38110320609256626 l -13.455892536681583 28.029560798076965" fill="#8cff24" stroke="none" /><path d="M 109.08828744355905 81.06846463323043 l 5.154412889623808 -10.737000839910984 a32.91012843226173,32.91012843226173 0 0,0 0.5085848706021839,0.24956038724464916 l -5.338469027236424 10.646685292531503" fill="#ff810b" stroke="none" /><path d="M 109.41281617654863 81.2277094730956 l 7.9693860269191275 -15.893610053822707 a38.77970624585873,38.77970624585873 0 0,0 0.5941411323330419,0.30434216454776325 l -8.241787646840924 15.754075363962443" fill="#ffd013" stroke="none" /><path d="M 110.36928655335952 81.73862282372117 l 6.587167528870418 -11.600677650196342 a34.340408464405044,34.340408464405044 0 0,0 0.5115139036257712,0.296301868917988 l -6.785878164961517 11.485571623888305" fill="#ff950d" stroke="none" /><line stroke="#e1ed5e" stroke-width="0.3" x1="143.23703022742887" x2="145.7803849466894" y1="26.81831364943548" y2="22.513508569990506" /><path d="M 143.74570117128098 25.957352633546492 a86.0,86.0 0 0,1 28.547481713284135,27.462654790039103" fill="none" id="id14" stroke="none" /><text fill="#e1ed5e" style="font-size:6.75px; font-family:Arial;" text-anchor="middle"><textPath startOffset="19.985693538727396" xlink:href="#id14">February</textPath></text><path d="M 110.68208982089419 81.91981866633111 l 1.6767754154351173 -2.838059225789876 a24.29638528738657,24.29638528738657 0 0,0 0.3582420256555509,0.21583681206008562 l -1.7253795073083058 2.808775804271176" fill="#ff0500" stroke="none" /><path d="M 111.90073688211348 82.69761687909136 l 8.389525401830534 -12.197461732242576 a35.804128112708355,35.804128112708355 0 0,0 0.50478511469193,0.35363423153321893 l -8.598241656106115 12.051242657945421" fill="#ffa90f" stroke="none" /><path d="M 112.19680574252982 82.90503203632743 l 11.251178876634247 -15.769583160526572 a40.37185533630643,40.37185533630643 0 0,0 0.5622351514566717,0.4084877482728047 l -11.520959344444709 15.573576177437094" fill="#ffe515" stroke="none" /><path d="M 112.77801427241765 83.33499621200491 l 10.809451757459623 -14.097617254432116 a38.76477018003073,38.76477018003073 0 0,0 0.5260332146683461,0.4105772678492364 l -11.0505175272874 13.909461597359655" fill="#ffd013" stroke="none" /><path d="M 113.06298171725822 83.55741782278167 l 16.58747973348149 -20.878923704714353 a47.66596968002368,47.66596968002368 0 0,0 0.6380353371991745,0.515913536964869 l -16.944418469245154 20.590304070485356" fill="#bfff1e" stroke="none" /><path d="M 113.6212207817346 84.01681056812373 l 11.768266967426047 -13.808926765028875 a39.14327880562226,39.14327880562226 0 0,0 0.5090605801482915,0.4414523187383424 l -12.004221346221103 13.604309452870861" fill="#ffd513" stroke="none" /><path d="M 113.89432698308785 84.25364557470407 l 11.780211341317004 -13.350440306396498 a38.80470824306734,38.80470824306734 0 0,0 0.49704953080611564,0.446255976434237 l -12.00827185971911 13.145685321192964" fill="#ffd113" stroke="none" /><path d="M 114.16331599549186 84.49514656593476 l 10.991733444237935 -12.032861237683898 a37.29748304722341,37.29748304722341 0 0,0 0.4702894983428625,0.4370828347085964 l -11.197230826375645 11.84187381690066" fill="#ffbd11" stroke="none" /><path d="M 114.68862486808459 84.99185889309783 l 13.088888201894425 -13.373605959079452 a39.71289209904275,39.71289209904275 0 0,0 0.48442958226632116,0.48234928768885527 l -13.31715358432807 13.146320820740478" fill="#ffdd14" stroke="none" /><path d="M 114.94478906791727 85.2469230424477 l 13.031783449132927 -12.864611420441275 a39.31189795908777,39.31189795908777 0 0,0 0.4712480751409145,0.48566256530798835 l -13.25129578797695 12.638384659583172" fill="#ffd714" stroke="none" /><path d="M 115.4437574822437 85.77008943001954 l 8.95391678304181 -8.250157723612565 a33.175291709939515,33.175291709939515 0 0,0 0.38334264323023504,0.4232965211999014 l -9.09460306688808 8.094808415143115" fill="#ff850c" stroke="none" /><path d="M 115.68641384162765 86.03803664274999 l 13.275526211937033 -11.816111215133182 a38.77245285412859,38.77245285412859 0 0,0 0.4394361546822326,0.502351489022048 l -13.476954230197114 11.585844169908185" fill="#ffd013" stroke="none" /><path d="M 115.9244219780498 86.31012108654704 l 13.47330607927661 -11.582707933978961 a38.76764193104226,38.76764193104226 0 0,0 0.43067044774495045,0.5097779696781286 l -13.670687140508678 11.349071014671726" fill="#ffd013" stroke="none" /><path d="M 116.15771136456269 86.58626213691792 l 13.683842041629983 -11.359991892714081 a38.78473921154904,38.78473921154904 0 0,0 0.4220176854410566,0.5173437824179196 l -13.87735821914745 11.122763940688062" fill="#ffd013" stroke="none" /><path d="M 116.60985879189232 87.15038557335679 l 23.441867900613353 -18.134950316989936 a50.63777308890633,50.63777308890633 0 0,0 0.5274142527626535,0.6940153338318544 l -23.75055809360012 17.72875020727705" fill="#9dff22" stroke="none" /><path d="M 116.82858285166822 87.43820079747576 l 12.731235699967977 -9.503309213416768 a36.88701508949844,36.88701508949844 0 0,0 0.3754349636857066,0.5120928685450055 l -12.892933276167309 9.28275390120027" fill="#ffb711" stroke="none" /><path d="M 117.04232023915458 87.72973835380427 l 14.73402234666087 -10.60831546159188 a39.15565398008431,39.15565398008431 0 0,0 0.3891090880461648,0.5503672103380399 l -14.914444054510916 10.353121750922048" fill="#ffd513" stroke="none" /><path d="M 117.45458315368197 88.32363383020206 l 14.163794178445936 -9.474969738609918 a38.04077806548025,38.04077806548025 0 0,0 0.35940087437112994,0.5473921887439264 l -14.32479168817499 9.229759485888318" fill="#ffc712" stroke="none" /><path d="M 117.65298651832404 88.62581576622439 l 13.715767510790204 -8.837352615288394 a37.31628265436073,37.31628265436073 0 0,0 0.3432607628337243,0.5429560925524517 l -13.865855869869884 8.599948875021735" fill="#ffbd11" stroke="none" /><line stroke="#e1ed5e" stroke-width="0.3" x1="172.23445277983987" x2="176.4835382374775" y1="55.19839476539836" y2="52.563006222186495" /><path d="M 173.08426987136738 54.67131705675599 a86.0,86.0 0 0,1 12.851231095245387,41.99856678651699" fill="none" id="id15" stroke="none" /><text fill="#e1ed5e" style="font-size:6.75px; font-family:Arial;" text-anchor="middle"><textPath startOffset="22.20632615414155" xlink:href="#id15">March</textPath></text><path d="M 117.84615892207809 88.93136811851018 l 13.853628394995527 -8.592365090812743 a37.30189429362256,37.30189429362256 0 0,0 0.33373507770328253,0.548572718013977 l -13.999479270985033 8.352624599591683" fill="#ffbd11" stroke="none" /><path d="M 118.21658344932153 89.55222093294921 l 16.14285984986733 -9.258433871037447 a39.609420245586165,39.609420245586165 0 0,0 0.33411933949249484,0.5943610229193727 l -16.29983683065226 8.97918933818328" fill="#ffdb14" stroke="none" /><path d="M 118.3937258080291 89.86733742301442 l 15.569389034738595 -8.576803159149057 a38.77547263354276,38.77547263354276 0 0,0 0.31702069524549314,0.587391201190561 l -15.714717829202552 8.307530974626037" fill="#ffd013" stroke="none" /><path d="M 118.56541770881063 90.18545643968196 l 15.71644527494021 -8.30844418281269 a38.77742660845783,38.77742660845783 0 0,0 0.30687821469769494,0.5927910334220232 l -15.857132922798021 8.036680427130323" fill="#ffd013" stroke="none" /><path d="M 118.89224826269711 90.83032412892265 l 13.52166922971799 -6.562973466596449 a36.03024149776547,36.03024149776547 0 0,0 0.2660092246729175,0.5602832679713453 l -13.632636648232664 6.329247782984563" fill="#ffac0f" stroke="none" /><path d="M 119.04729006885535 91.15688171328212 l 16.349894404720125 -7.5907937388268945 a39.026069916399194,39.026069916399194 0 0,0 0.2776383058826889,0.6117392046604521 l -16.47813502756616 7.30823252532438" fill="#ffd413" stroke="none" /><path d="M 119.196687751892 91.48605970444005 l 33.88489585365957 -15.028320715946979 a58.06799954886582,58.06799954886582 0 0,0 0.39737671409633535,0.9172002439287408 l -34.138563277598585 14.442821327431634" fill="#4cff2c" stroke="none" /><path d="M 119.47837535516314 92.15188598940014 l 16.498215139261312 -6.64736514331551 a38.7870336517902,38.7870336517902 0 0,0 0.24418552522486706,0.6214255271088339 l -16.61019421436788 6.362390611310892" fill="#ffd013" stroke="none" /><path d="M 119.61058180528143 92.48833698450437 l 16.789525744718343 -6.431081996269345 a38.979070898555904,38.979070898555904 0 0,0 0.2346083669546332,0.6286337834968629 l -16.897738700174603 6.141125075743149" fill="#ffd313" stroke="none" /><path d="M 119.7369772167798 92.82701384747503 l 8.412620229466484 -3.0573885630831112 a29.950966648965917,29.950966648965917 0 0,0 0.17192841696671352,0.4860647868945186 l -8.464001727243007 2.912126149761978" fill="#ff5808" stroke="none" /><path d="M 119.85752413597 93.16781622104841 l 14.627050393557175 -5.032585923022831 a36.46859800655084,36.46859800655084 0 0,0 0.19912324475145482,0.5953531569218719 l -14.7115109320804 4.780059663178645" fill="#ffb210" stroke="none" /><path d="M 120.08093135843002 93.85539295169968 l 22.66051339850203 -6.933938862755292 a44.69764493860346,44.69764493860346 0 0,0 0.2187930625087335,0.7376614389217936 l -22.776512358122467 6.542848037086968" fill="#e3ff1b" stroke="none" /><path d="M 120.28053869075195 94.5502522615342 l 18.140249327806238 -4.8746132564268825 a39.78378290107473,39.78378290107473 0 0,0 0.17202444854729126,0.6628803734416464 l -18.221470108223834 4.561636457436386" fill="#ffdd14" stroke="none" /><path d="M 120.45610955862082 95.25157060432595 l 19.486420540680367 -4.52333772688651 a41.004528729258396,41.004528729258396 0 0,0 0.153680312825183,0.6889187087141925 l -19.561395240507586 4.187240848622353" fill="#ffed16" stroke="none" /><path d="M 120.53481517161879 95.60439243477599 l 17.563072867281466 -3.7594872570707083 a38.96093741923053,38.96093741923053 0 0,0 0.13473193843791736,0.6570007808973042 l -17.62518410163438 3.4566108200099923" fill="#ffd313" stroke="none" /><path d="M 120.6074358757038 95.95851677861258 l 17.44078949714782 -3.4204477716500823 a38.77303016489894,38.77303016489894 0 0,0 0.12280762063044963,0.6560432200378066 l -17.497082841688126 3.1197264741497133" fill="#ffd013" stroke="none" /><path d="M 120.67395015179393 96.31383870115 l 18.342492219785008 -3.2704628021540225 a39.63177253438724,39.63177253438724 0 0,0 0.11396614133359992,0.6726346174042693 l -18.39607022263883 2.9542423964339157" fill="#ffdb14" stroke="none" /><path d="M 120.78858239683441 97.02765380044208 l 11.770396547313895 -1.6829282909654044 a32.890100189382366,32.890100189382366 0 0,0 0.07530893373781541,0.5611390297862482 l -11.797621480109546 1.4800709191144918" fill="#ff810b" stroke="none" /><path d="M 120.83666639777658 97.38593545837742 l 11.758405302755968 -1.4751510525331029 a32.8505766058732,32.8505766058732 0 0,0 0.06555981281812887,0.5616764395227561 l -11.782055468577685 1.272530874685494" fill="#ff810b" stroke="none" /><path d="M 120.87857604477298 97.74499172005257 l 7.371325418248237 -0.7961462418074334 a28.41419498395184,28.41419498395184 0 0,0 0.04833508172630286,0.48672767671727535 l -7.383937625656768 0.6691430343857231" fill="#ff4206" stroke="none" /><path d="M 120.94382443527127 98.46500227214037 l 9.61064926901817 -0.7043758811477863 a30.63642697030503,30.63642697030503 0 0,0 0.034020160508757065,0.5262768253910184 l -9.621350020531342 0.5388399915037327" fill="#ff6209" stroke="none" /><path d="M 120.96714384426684 98.82574320788733 l 62.90143153280055 -3.5227703763380056 a84.0,84.0 0 0,0 0.0684255670660141,1.444355573508001 l -62.95275070810006 2.4395036962070047" fill="#4dd2ff" stroke="none" /><line stroke="#e1ed5e" stroke-width="0.3" x1="184.98032266829074" x2="189.97916517819016" y1="98.17113171792111" y2="98.06355123074" /><path d="M 185.9800911702706 98.14961562048488 a86.0,86.0 0 0,1 -9.607161424134198,41.387399972396054" fill="none" id="id16" stroke="none" /><text fill="#e1ed5e" style="font-size:6.75px; font-family:Arial;" text-anchor="middle"><textPath startOffset="21.466115282336823" xlink:href="#id16">April</textPath></text><path d="M 120.99513854157772 99.54816195383933 l 4.448703679279966 -0.09574090565837154 a25.449733783840937,25.449733783840937 0 0,0 0.0056558917345342725,0.4380550478510573 l -4.449692578132215 0.01914959974685148" fill="#ff1602" stroke="none" /><path d="M 120.99980553446 99.90962569577887 l 11.907176022318458 -0.05124346254015087 a32.907286286930734,32.907286286930734 0 0,0 -0.002437807355794213,0.5664605757506344 l -11.90629391767316 -0.1537265914141682" fill="#ff810b" stroke="none" /><path d="M 120.9904718944345 100.63252640178507 l 10.366445552479693 0.31238223407208815 a31.371151144048085,31.371151144048085 0 0,0 -0.020910914572343335,0.5396177895520361 l -10.359532505056148 -0.4907772706381305" fill="#ff6c09" stroke="none" /><path d="M 120.95626037817324 101.35467743843564 l 9.052035580848035 0.5851515562415639 a30.07092886647838,30.07092886647838 0 0,0 -0.037837020229155534,0.5162560793742944 l -9.04062200195454 -0.7408807721126285" fill="#ff5a08" stroke="none" /><path d="M 120.92983693683757 101.71520430193887 l 14.76282468677459 1.2098164208321391 a35.812314083375234,35.812314083375234 0 0,0 -0.055637676439157034,0.6139571232932963 l -14.739812414058356 -1.463754932674006" fill="#ffa90f" stroke="none" /><path d="M 120.89721153311464 102.0752229133903 l 12.077796164239274 1.1994001833004897 a33.13720400193612,33.13720400193612 0 0,0 -0.061252856859299674,0.5671253809880882 l -12.055361005878922 -1.4071218861733692" fill="#ff850c" stroke="none" /><path d="M 120.81339534386255 102.79330883721812 l 22.015566816398263 2.9546489810344725 a43.212949665643784,43.212949665643784 0 0,0 -0.10528721800069066,0.7363785574730135 l -21.96144554738097 -3.3331730104878954" fill="#f5ff19" stroke="none" /><path d="M 120.76222939487914 103.15116336523771 l 18.09484534977366 2.746324235292001 a39.302068873151406,39.302068873151406 0 0,0 -0.10727264941813583,0.6679868903264721 l -18.044890945994233 -3.057390355311678" fill="#ffd714" stroke="none" /><path d="M 120.70491114924044 103.5080841355445 l 21.911762752811732 3.7125639777388577 a43.22405179584298,43.22405179584298 0 0,0 -0.13060570776006744,0.7325061691179371 l -21.844610602712475 -4.089188897590013" fill="#f5ff19" stroke="none" /><path d="M 120.49622156327973 104.57218783832717 l 21.681387977607418 4.836568443759877 a43.21429672410795,43.21429672410795 0 0,0 -0.16820534085417851,0.7246242060570308 l -21.594922070822687 -5.209061307165473" fill="#f5ff19" stroke="none" /><path d="M 120.41448212921028 104.9243191809786 l 9.046659475322649 2.1822076355476203 a30.306131195458583,30.306131195458583 0 0,0 -0.12669216316432214,0.5060722145627353 l -9.007755997863265 -2.337607689507752" fill="#ff5d08" stroke="none" /><path d="M 120.32669344350535 105.2749913415812 l 15.021471063301503 3.8982301778180117 a36.519046086176026,36.519046086176026 0 0,0 -0.16313914111940306,0.6071014333554314 l -14.952143845840322 -4.156222544348991" fill="#ffb310" stroke="none" /><path d="M 120.02730092923936 106.31721596034902 l 22.597720775661127 7.128004060851696 a44.695261681320694,44.695261681320694 0 0,0 -0.23775271774572035,0.7317276253246834 l -22.47167580689916 -7.515930586154175" fill="#e3ff1b" stroke="none" /><path d="M 119.26925614724726 108.34839909993367 l 20.726645488258015 8.97981256861005 a43.58829048341847,43.58829048341847 0 0,0 -0.3042025034127615,0.6858963380802658 l -20.56900190011398 -9.335257243183005" fill="#f0ff19" stroke="none" /><path d="M 119.12269723197855 108.67885076344098 l 17.971145059982092 8.156217929493245 a40.735398290389426,40.735398290389426 0 0,0 -0.2952838863303147,0.6360152214677582 l -17.828086556811947 -8.464353218239834" fill="#ffea16" stroke="none" /><path d="M 118.97047184881838 109.00673069616215 l 20.06869757452305 9.528142257975011 a43.21571779677345,43.21571779677345 0 0,0 -0.32483144367991534,0.6692489858761295 l -19.90171287422842 -9.872180199816416" fill="#f5ff19" stroke="none" /><path d="M 118.64920377521936 109.65438752849418 l 17.771793692199562 9.200166690704998 a41.01198936075227,41.01198936075227 0 0,0 -0.32994632072411745,0.6241340952925539 l -17.61079486325055 -9.504715801083687" fill="#ffed16" stroke="none" /><line stroke="#e1ed5e" stroke-width="0.3" x1="174.80103733775053" x2="179.2010983576182" y1="140.37084112569926" y2="142.7455964860345" /><path d="M 175.68104954172406 140.8457921977663 a86.0,86.0 0 0,1 -30.038265399797805,32.042727171017184" fill="none" id="id17" stroke="none" /><text fill="#e1ed5e" style="font-size:6.75px; font-family:Arial;" text-anchor="middle"><textPath startOffset="22.206326154141568" xlink:href="#id17">May</textPath></text><path d="M 118.48025628344425 109.97397251340804 l 15.641916381510445 8.442093099432688 a38.77465847732816,38.77465847732816 0 0,0 -0.3220578644717638,0.5846285720465986 l -15.494282107587171 -8.710092189877091" fill="#ffd013" stroke="none" /><path d="M 118.30583269289576 110.29060199501025 l 15.924247274737066 8.951796595302731 a39.26790391781839,39.26790391781839 0 0,0 -0.3362978159476091,0.586363588731922 l -15.767797462637077 -9.224580029892968" fill="#ffd714" stroke="none" /><path d="M 118.12598468904814 110.60418214915192 l 10.235286488151536 5.987914264028439 a32.85817046292946,32.85817046292946 0 0,0 -0.28980769330010336,0.48573436367834677 l -10.130697919153205 -6.16321072159289" fill="#ff810b" stroke="none" /><path d="M 117.75023020441432 111.22182372390056 l 17.51694651708469 11.074340092041867 a41.72400597752788,41.72400597752788 0 0,0 -0.38901702146794476,0.6037630562532812 l -17.323724632239696 -11.374224748216601" fill="#fff617" stroke="none" /><path d="M 117.55443506779139 111.5257021239791 l 15.088200154767739 9.906448136852966 a39.0496952494631,39.0496952494631 0 0,0 -0.373755594276181,0.5587139016179299 l -14.915441455080837 -10.164698952676702" fill="#ffd413" stroke="none" /><path d="M 117.14729908036423 112.12312394758627 l 8.698662203862888 6.149945806705654 a31.653100842587065,31.653100842587065 0 0,0 -0.3183702158060582,0.4421883843086442 l -8.591512195681227 -6.298767796465429" fill="#ff700a" stroke="none" /><path d="M 116.93607887273984 112.41649034213515 l 14.74130560878459 10.80741770850798 a39.27857676564989,39.27857676564989 0 0,0 -0.40445474694398664,0.5418332285815923 l -14.553089595145511 -11.059563816598889" fill="#ffd714" stroke="none" /><path d="M 116.71984013943494 112.70617746262583 l 14.153693497471322 10.756044306088784 a38.77693811472906,38.77693811472906 0 0,0 -0.40843782667309114,0.5279609489480762 l -13.966448853580161 -10.998083249150113" fill="#ffd013" stroke="none" /><path d="M 116.0416608686014 113.55231037782055 l 14.062180210184973 11.880006213713706 a39.408678928744294,39.408678928744294 0 0,0 -0.4422357322608958,0.5144200660075883 l -13.8556019683533 -12.120303378882822" fill="#ffd914" stroke="none" /><path d="M 115.80600337817218 113.82643327865902 l 13.441379309955611 11.757958653792253 a38.85833893334962,38.85833893334962 0 0,0 -0.44472656571409575,0.4996550110937402 l -13.236993894593176 -11.98758783462686" fill="#ffd113" stroke="none" /><path d="M 115.56566222782051 114.09645910891815 l 13.24105360527352 11.991264359580432 a38.8638159842479,38.8638159842479 0 0,0 -0.45332530115879993,0.49199508157353006 l -13.032681896118996 -12.217410695955298" fill="#ffd113" stroke="none" /><path d="M 115.07121518719521 114.62390073753431 l 22.501191762071006 21.833355221702558 a52.35281535923909,52.35281535923909 0 0,0 -0.633118488819777,0.6413456865733009 l -22.12203264819569 -22.217441402256522" fill="#89ff24" stroke="none" /><path d="M 114.81725581225074 114.88116024355365 l 7.275591026118196 7.306969475191894 a31.311451289256897,31.311451289256897 0 0,0 -0.3852054729410723,0.377004630277786 l -7.14873560080133 -7.431124208392252" fill="#ff6b09" stroke="none" /><path d="M 114.55890576462653 115.13401014063108 l 12.417857813602378 12.908386736906264 a38.9117179753474,38.9117179753474 0 0,0 -0.48670066354356367,0.4602058557041626 l -12.193821315668007 -13.120227229356347" fill="#ffd213" stroke="none" /><path d="M 114.0293411484842 115.62618273729858 l 14.894534507539289 16.589853759950458 a43.29507582343736,43.29507582343736 0 0,0 -0.5588314944491338,0.4931038196276325 l -14.606760660183566 -16.84378072135038" fill="#f4ff19" stroke="none" /><path d="M 113.75828350139079 115.86535959552629 l 9.96154824065052 11.487155716054732 a36.20484099869829,36.20484099869829 0 0,0 -0.47434293684669687,0.4042453414310017 l -9.762339827226777 -11.65692544770868" fill="#ffae10" stroke="none" /><path d="M 111.7513745106137 117.40417183066458 l 10.40968051461638 15.417078931070748 a39.602359290779475,39.602359290779475 0 0,0 -0.5682472782810621,0.37660331046767964 l -10.142758537595354 -15.593980262629746" fill="#ffdb14" stroke="none" /><path d="M 111.45004920935366 117.60387380957326 l 9.723173962955583 14.94889011765744 a38.83281883673172,38.83281883673172 0 0,0 -0.5634793608269953,0.3596391881830154 l -9.464412800081657 -15.114043734664264" fill="#ffd113" stroke="none" /><path d="M 111.1453310114006 117.79835938074945 l 9.493952533679545 15.161216743168813 a38.88847751613039,38.88847751613039 0 0,0 -0.5704028551396623,0.35038802159700844 l -9.231570478607575 -15.3223932315942" fill="#ffd213" stroke="none" /><line stroke="#e1ed5e" stroke-width="0.3" x1="143.8653032363475" x2="146.44561519142675" y1="172.8068346515853" y2="177.08958963109032" /><path d="M 144.38136562736335 173.6633856474863 a86.0,86.0 0 0,1 -40.68145358897372,12.25698825130547" fill="none" id="id18" stroke="none" /><text fill="#e1ed5e" style="font-size:6.75px; font-family:Arial;" text-anchor="middle"><textPath startOffset="21.466115282336833" xlink:href="#id18">June</textPath></text><path d="M 109.89434966115114 118.52300852407294 l 9.794233053819312 18.33558228237763 a41.787510162267324,41.787510162267324 0 0,0 -0.6373771269400352,0.3334455885116518 l -9.477165024352782 -18.501457289834" fill="#fff717" stroke="none" /><path d="M 109.57404056367764 118.69057910512821 l 8.104071682045898 15.820884801925768 a38.77572428182728,38.77572428182728 0 0,0 -0.5966773227830088,0.2991863964614322 l -7.83054045158013 -15.958039039296501" fill="#ffd013" stroke="none" /><path d="M 106.91757812671514 119.82793768551818 l 5.9551142416252745 17.069215833946476 a39.07820551981466,39.07820551981466 0 0,0 -0.6370310729491468,0.21611552697393122 l -5.660413435738901 -17.16919434781853" fill="#ffd413" stroke="none" /><path d="M 106.57524785965236 119.94407469862006 l 3.899624988146641 11.828362020760984 a33.454606502911226,33.454606502911226 0 0,0 -0.5484622346349598,0.17560028766359873 l -3.695441408420741 -11.89373515508429" fill="#ff890c" stroke="none" /><path d="M 105.53697534728816 120.25689768951611 l 4.684788221328339 17.139190576851153 a38.767923185007305,38.767923185007305 0 0,0 -0.6452266507385612,0.17041022283382512 l -4.389071127778281 -17.217292148988562" fill="#ffd013" stroke="none" /><path d="M 105.18746579009965 120.34920634021253 l 4.483551130610506 17.587914944482677 a39.15039897179001,39.15039897179001 0 0,0 -0.6544580457161737,0.16084986475189228 l -4.180139800151121 -17.6624860675486" fill="#ffd513" stroke="none" /><path d="M 104.83641907484287 120.43548508189849 l 4.17352599473667 17.634540531855748 a39.12168146167474,39.12168146167474 0 0,0 -0.6566478303386262,0.1494509083232808 l -3.869358015005181 -17.703768173756714" fill="#ffd513" stroke="none" /><path d="M 104.13013068566511 120.58985236759428 l 3.495036505313251 17.423730903605495 a38.7708097388591,38.7708097388591 0 0,0 -0.6554710984082734,0.1256225960443081 l -3.1945977923332736 -17.48131069799827" fill="#ffd013" stroke="none" /><path d="M 103.41894727170886 120.7198165907248 l 2.940231672174086 17.818660581810477 a39.05961315244106,39.05961315244106 0 0,0 -0.6643187142560484,0.10375292076240059 l -2.6330770943095207 -17.866631809919983" fill="#ffd413" stroke="none" /><path d="M 102.70371172650421 120.8252237178851 l 2.2879441190250493 17.622791537144302 a38.770691316136976,38.770691316136976 0 0,0 -0.6625589477476928,0.0802266615283505 l -1.9842577482259762 -17.659563727398" fill="#ffd013" stroke="none" /><path d="M 102.34483914955558 120.86867818915974 l 1.9844081594366203 17.66090236214042 a38.772038374601145,38.772038374601145 0 0,0 -0.6638648172696793,0.06881230268947405 l -1.6801107455613384 -17.692444033285653" fill="#ffd013" stroke="none" /><path d="M 101.98527174616119 120.90594882070398 l 0.8414470884192053 8.86087750950846 a29.900740611944716,29.900740611944716 0 0,0 -0.5128057921489592,0.04424704152085321 l -0.6887969785287046 -8.874048803307977" fill="#ff5708" stroke="none" /><path d="M 101.62511606390274 120.93702456842531 l 0.5738271785398867 7.392846579995946 a28.415083154367778,28.415083154367778 0 0,0 -0.4879779590965866,0.033653817083644975 l -0.44648645866436976 -7.401628741595876" fill="#ff4206" stroke="none" /><path d="M 101.26447882468166 120.96189622390904 l 1.6054110094315788 26.61369911425597 a47.662076533033826,47.662076533033826 0 0,0 -0.8193608720292909,0.04235159801053017 l -1.1470620689888085 -26.637390519028703" fill="#bfff1e" stroke="none" /><path d="M 100.90346689309514 120.98055641714683 l 0.6829210619569203 15.858980531936469 a36.87367773041913,36.87367773041913 0 0,0 -0.6343671106146681,0.021848885941469616 l -0.40983359966759986 -15.868386216304032" fill="#ffb711" stroke="none" /><line stroke="#e1ed5e" stroke-width="0.3" x1="102.19456741930631" x2="102.32365962044197" y1="184.97166512339345" y2="189.96999836594603" /><path d="M 102.22038585953345 185.97133177190398 a86.0,86.0 0 0,1 -42.740103519485714,-10.115201625700543" fill="none" id="id19" stroke="none" /><text fill="#e1ed5e" style="font-size:6.75px; font-family:Arial;" text-anchor="middle"><textPath startOffset="22.20632615414155" xlink:href="#id19">July</textPath></text><path d="M 100.54218724476979 120.99299961872073 l 0.409845447441244 15.868844951381247 a36.87413661846736,36.87413661846736 0 0,0 -0.6346571130628081,0.01092619775808495 l -0.1366286444857679 -15.873548626418492" fill="#ffb711" stroke="none" /><path d="M 99.81925306533755 120.99922214144158 l -0.15310300853195588 17.787544185409196 a38.788203076171186,38.788203076171186 0 0,0 -0.6676009594455945,-0.011493355949621161 l 0.4592636578702183 -17.782273352180415" fill="#ffd113" stroke="none" /><path d="M 99.45781275523022 120.99299961872073 l -0.45864642708197667 17.758374734447862 a38.76429648914224,38.76429648914224 0 0,0 -0.666892923960818,-0.022969140718336282 l 0.7642597027174377 -17.747848795303433" fill="#ffd013" stroke="none" /><path d="M 99.09653310690486 120.98055641714683 l -1.3910187641047635 32.30261991961743 a53.33255614505844,53.33255614505844 0 0,0 -0.9168423385892189,-0.04739027635869082 l 1.9468491711074714 -32.27388983649654" fill="#7fff26" stroke="none" /><path d="M 98.37488393609728 120.93702456842531 l -0.9932825738858274 12.796859322708169 a33.83535035738286,33.83535035738286 0 0,0 -0.5802854139246283,-0.05006946722709835 l 1.2134123055519974 -12.777865603202407" fill="#ff8e0d" stroke="none" /><path d="M 97.65516085044442 120.86867818915974 l -1.9905651018503443 17.715698124948133 a38.82717895459052,38.82717895459052 0 0,0 -0.6635242746227983,-0.08034354916942874 l 2.295216799524532 -17.678809047053356" fill="#ffd113" stroke="none" /><path d="M 96.93821686468263 120.77559828337769 l -5.229541767550444 35.48483160532903 a56.86811092261638,56.86811092261638 0 0,0 -0.9672023678995874,-0.15105711834457544 l 5.839579999058548 -35.389556179637346" fill="#58ff2a" stroke="none" /><path d="M 96.58105272829116 120.7198165907248 l -4.821986208381618 29.222641328052607 a50.61780405738803,50.61780405738803 0 0,0 -0.8584563322316662,-0.14925363711326894 l 5.324291512085334 -29.135309112418334" fill="#9dff22" stroke="none" /><path d="M 96.22490169976321 120.6578951692458 l -2.0174929523085576 11.040019252178993 a32.22284736156995,32.22284736156995 0 0,0 -0.544769255431921,-0.10440632436528052 l 2.207229822312174 -11.003655729465244" fill="#ff780b" stroke="none" /><path d="M 95.51606077576429 120.51570834832081 l -2.73573245207176 12.517004869821214 a33.8124799691725,33.8124799691725 0 0,0 -0.5675341851519403,-0.12916893280790742 l 2.9507867866165634 -12.468059203435619" fill="#ff8e0d" stroke="none" /><path d="M 95.16358092515715 120.4354850818985 l -11.409376854308764 48.208425881200284 a70.54014741749178,70.54014741749178 0 0,0 -1.1791850973638185,-0.28981500750114386 l 12.237515236415794 -48.00488961538511" fill="#3cffa2" stroke="none" /><path d="M 94.46302465271185 120.25689768951611 l -4.765974486312525 17.436208670743188 a39.075837065372156,39.075837065372156 0 0,0 -0.6472983712031164,-0.18293298539066993 l 5.065404025620255 -17.351586892013998" fill="#ffd413" stroke="none" /><path d="M 92.7421414339146 119.70592522655815 l -5.985965723867414 16.252589092114768 a38.31988561868823,38.31988561868823 0 0,0 -0.6170044983208696,-0.23329830628871193 l 6.264840442948566 -16.14714253571942" fill="#ffca12" stroke="none" /><path d="M 92.40401165467489 119.57807347666478 l -4.276765930167001 11.023033977512295 a32.823620633749535,32.823620633749535 0 0,0 -0.5249886847082884,-0.2089038321770843 l 4.465875690917148 -10.947783300929144" fill="#ff800b" stroke="none" /><path d="M 92.06813273071674 119.44442032107085 l -19.04820049809663 46.69533721011074 a71.4310267531967,71.4310267531967 0 0,0 -1.1344898142662583,-0.4742168343731459 l 19.849161771860352 -46.360535332717625" fill="#3dffac" stroke="none" /><path d="M 91.7346041902142 119.30500536409082 l -4.844536023463228 11.31510166866559 a33.30857648369103,33.30857648369103 0 0,0 -0.5251324300157801,-0.23020262509935244 l 5.038589128136752 -11.230034490271787" fill="#ff870c" stroke="none" /><path d="M 91.40352486487194 119.15986991738527 l -4.805717513797989 10.711008986440588 a32.73970333228382,32.73970333228382 0 0,0 -0.5121923977969189,-0.2351224083778567 l 4.989377907362328 -10.626699507728658" fill="#ff7f0b" stroke="none" /><path d="M 90.7491055286396 118.85261126421891 l -5.436844282236221 11.079870392470038 a33.341912479969174,33.341912479969174 0 0,0 -0.5130623203945447,-0.2572600984448805 l 5.6267605103135265 -10.984642453115855" fill="#ff870c" stroke="none" /><path d="M 90.42595943632237 118.69057910512821 l -5.532892647843524 10.801392267652785 a33.13601977471487,33.13601977471487 0 0,0 -0.5054175518049102,-0.2644105755956345 l 5.718001102174929 -10.704552273112434" fill="#ff850c" stroke="none" /><path d="M 90.10565033884886 118.52300852407294 l -1.3987078627601992 2.618492225549745 a23.968650403906068,23.968650403906068 0 0,0 -0.3622429937378705,-0.19752376271895283 l 1.4435736683667102 -2.594027811071026" fill="#ff0000" stroke="none" /><line stroke="#e1ed5e" stroke-width="0.3" x1="58.666819895761336" x2="56.23545636021788" y1="174.27360380694188" y2="178.64263932499728" /><path d="M 58.180547188652646 175.14741091055294 a86.0,86.0 0 0,1 -31.652253787137756,-30.449443065178592" fill="none" id="id20" stroke="none" /><text fill="#e1ed5e" style="font-size:6.75px; font-family:Arial;" text-anchor="middle"><textPath startOffset="22.20632615414155" xlink:href="#id20">August</textPath></text><line stroke="#e1ed5e" stroke-width="0.3" x1="26.63291911575756" x2="22.317208475507996" y1="142.92168965132927" y2="145.44649492493687" /><path d="M 25.769776987707644 143.4266507060508 a86.0,86.0 0 0,1 -11.730757126820373,-40.83630448921669" fill="none" id="id21" stroke="none" /><text fill="#e1ed5e" style="font-size:6.75px; font-family:Arial;" text-anchor="middle"><textPath startOffset="21.46611528233685" xlink:href="#id21">September</textPath></text><line stroke="#e1ed5e" stroke-width="0.3" x1="15.007084014347285" x2="10.007500721073583" y1="101.09737516637583" y2="101.16192664675087" /><path d="M 14.007167355692545 101.11028546245083 a86.0,86.0 0 0,1 10.666146001902534,-42.60595125391555" fill="none" id="id22" stroke="none" /><text fill="#e1ed5e" style="font-size:6.75px; font-family:Arial;" text-anchor="middle"><textPath startOffset="22.20632615414155" xlink:href="#id22">October</textPath></text><line stroke="#e1ed5e" stroke-width="0.3" x1="26.266209847984243" x2="21.928928074336255" y1="57.711370442889674" y2="55.22380399835377" /><path d="M 25.398753493254645 57.213857153982495 a86.0,86.0 0 0,1 29.58750427330803,-30.492523968695096" fill="none" id="id23" stroke="none" /><text fill="#e1ed5e" style="font-size:6.75px; font-family:Arial;" text-anchor="middle"><textPath startOffset="21.46611528233685" xlink:href="#id23">November</textPath></text><line stroke="#e1ed5e" stroke-width="0.3" x1="56.762969772571076" x2="54.21961505331055" y1="26.818313649435495" y2="22.513508569990535" /><path d="M 56.25429882871897 25.957352633546506 a86.0,86.0 0 0,1 42.265352541879196,-11.944610805530505" fill="none" id="id24" stroke="none" /><text fill="#e1ed5e" style="font-size:6.75px; font-family:Arial;" text-anchor="middle"><textPath startOffset="22.20632615414155" xlink:href="#id24">December</textPath></text></svg>