<?xml version="1.0" encoding="utf-8" ?>
<svg baseProfile="full" height="200mm" version="1.1" viewBox="0,0,200,200" width="200mm" xmlns="http://www.w3.org/2000/svg" xmlns:ev="http://www.w3.org/2001/xml-events" xmlns:xlink="http://www.w3.org/1999/xlink"><defs /><rect fill="#1a1a1a" height="200" width="200" x="0" y="0" /><rect fill="#1a1a1a" height="200" width="180" x="10" y="0" /><text alignment-baseline="middle" fill="#e1ed5e" style="dominant-baseline: central; font-size:9.0px; font-family:Arial;" text-anchor="middle" x="100.0" y="100.0">2026</text><line stroke="#e1ed5e" stroke-width="0.3" x1="100.0" x2="100.0" y1="15.0" y2="10.0" /><path d="M 100.0 14.0 a86.0,86.0 0 0,1 42.46469731375804,11.215312516191453" fill="none" id="id25" stroke="none" /><text fill="#e1ed5e" style="font-size:6.75px; font-family:Arial;" text-anchor="middle"><textPath startOffset="22.20632615414155" xlink:href="#id25">January</textPath></text><path d="M 100.0 79.0 l 0.0 -48.000512633536985 a69.00051263353699,69.00051263353699 0 0,0 1.1877303988962429,0.010223170523169414 l -0.8262499196237144 47.993400839622375" fill="#35ff63" stroke="none" /><path d="M 101.80526077348638 79.07773832637324 l 3.0324927747512933 -35.1453974342992 a56.27598295219799,56.27598295219799 0 0,0 0.9643958196568494,0.0915810035364038 l -3.637013721498387 35.08799088624762" fill="#afff20" stroke="none" /><path d="M 102.88285421437855 79.19881850522331 l 6.178498612607711 -44.58084295940827 a66.00694839774651,66.00694839774651 0 0,0 1.1241015359180566,0.16566334591731113 l -6.9449691289544235 44.46788512932999" fill="#30ff35" stroke="none" /><path d="M 103.2404852339499 79.25152402106235 l 6.9602066508859 -44.56544933189493 a66.10569532527717,66.10569532527717 0 0,0 1.1227605157337264,0.18526510527938786 l -7.726296372758502 44.439037963675915" fill="#30ff37" stroke="none" /><path d="M 105.36241919743992 79.69619591428918 l 11.112053211820477 -42.073725140792526 a64.51638856574942,64.51638856574942 0 0,0 1.0712857558352415,0.29282286512364447 l -11.83463685687943 41.87621573484259" fill="#3eff2e" stroke="none" /><path d="M 106.0581310904928 79.89281104454417 l 7.118574221514249 -23.62684379511847 a45.67593659146772,45.67593659146772 0 0,0 0.7508572107863045,0.2332949903769224 l -7.524216805011272 23.50080866985903" fill="#ffa80f" stroke="none" /><path d="M 106.74666289553966 80.11325718540242 l 12.088467337165245 -35.63246669932207 a58.62716738793936,58.62716738793936 0 0,0 0.9528812990618315,0.33244157492790477 l -12.70003064029035 35.41910427122196" fill="#8dff24" stroke="none" /><path d="M 107.08798089147638 80.2323363322302 l 15.188851470652976 -42.36017449378858 a66.00095101374829,66.00095101374829 0 0,0 1.0661280523658003,0.39266395911107393 l -15.915761848791353 42.09244726687118" fill="#30ff35" stroke="none" /><path d="M 108.09893153111575 80.62456947434976 l 14.297321331410288 -34.204111381279205 a58.07201953814431,58.07201953814431 0 0,0 0.9189654909735004,0.3934530643829146 l -14.883970580174104 33.9529387889335" fill="#95ff23" stroke="none" /><path d="M 109.08828744355905 81.06846463323043 l 13.447084981194747 -28.011214046917374 a52.07172680868726,52.07172680868726 0 0,0 0.8047034059905813,0.39486446653105617 l -13.92725965419576 27.775594420251487" fill="#eeff19" stroke="none" /><line stroke="#e1ed5e" stroke-width="0.3" x1="143.23703022742887" x2="145.7803849466894" y1="26.81831364943548" y2="22.513508569990506" /><path d="M 143.74570117128098 25.957352633546492 a86.0,86.0 0 0,1 28.547481713284135,27.462654790039103" fill="none" id="id26" stroke="none" /><text fill="#e1ed5e" style="font-size:6.75px; font-family:Arial;" text-anchor="middle"><textPath startOffset="19.985693538727396" xlink:href="#id26">February</textPath></text><path d="M 110.68208982089419 81.91981866633111 l 28.477734264452316 -48.20054952788563 a76.98459005500457,76.98459005500457 0 0,0 1.1351118760816108,0.6838922044857012 l -29.303208206751563 47.70321071394131" fill="#42ffd4" stroke="none" /><path d="M 112.19680574252982 82.90503203632743 l 21.578445979420863 -30.24421725745437 a58.15295423520026,58.15295423520026 0 0,0 0.8098620873308617,0.5883992482650591 l -22.095853383105514 29.868298774372633" fill="#94ff23" stroke="none" /><path d="M 114.16331599549186 84.49514656593476 l 10.340678997039873 -11.320139458079788 a36.33216225684416,36.33216225684416 0 0,0 0.45811762525232186,0.4257704052095898 l -10.534004506087042 11.140464466795557" fill="#ff0000" stroke="none" /><path d="M 114.42810811169701 84.74124197986012 l 24.739824338119657 -26.164136705497302 a57.0086233814203,57.0086233814203 0 0,0 0.7072238880689938,0.6803488199896198 l -25.186531469801068 25.73440479874538" fill="#a4ff21" stroke="none" /><path d="M 116.15771136456269 86.58626213691792 l 48.47313409368808 -40.241213589246215 a84.0,84.0 0 0,0 0.9140060316943646,1.1204633215675965 l -49.158638617458855 39.400866098070516" fill="#4dd2ff" stroke="none" /><path d="M 117.65298651832404 88.62581576622439 l 16.696981521404204 -10.758210446445679 a40.86273606369793,40.86273606369793 0 0,0 0.3758834737805526,0.5945573869093543 l -16.87969259143071 10.469205411822118" fill="#ff5407" stroke="none" /><line stroke="#e1ed5e" stroke-width="0.3" x1="172.23445277983987" x2="176.4835382374775" y1="55.19839476539836" y2="52.563006222186495" /><path d="M 173.08426987136738 54.67131705675599 a86.0,86.0 0 0,1 12.851231095245387,41.99856678651699" fill="none" id="id27" stroke="none" /><text fill="#e1ed5e" style="font-size:6.75px; font-family:Arial;" text-anchor="middle"><textPath startOffset="22.20632615414155" xlink:href="#id27">March</textPath></text><line stroke="#e1ed5e" stroke-width="0.3" x1="184.98032266829074" x2="189.97916517819016" y1="98.17113171792111" y2="98.06355123074" /><path d="M 185.9800911702706 98.14961562048488 a86.0,86.0 0 0,1 -9.607161424134198,41.387399972396054" fill="none" id="id28" stroke="none" /><text fill="#e1ed5e" style="font-size:6.75px; font-family:Arial;" text-anchor="middle"><textPath startOffset="21.466115282336823" xlink:href="#id28">April</textPath></text><line stroke="#e1ed5e" stroke-width="0.3" x1="174.80103733775053" x2="179.2010983576182" y1="140.37084112569926" y2="142.7455964860345" /><path d="M 175.68104954172406 140.8457921977663 a86.0,86.0 0 0,1 -30.038265399797805,32.042727171017184" fill="none" id="id29" stroke="none" /><text fill="#e1ed5e" style="font-size:6.75px; font-family:Arial;" text-anchor="middle"><textPath startOffset="22.206326154141568" xlink:href="#id29">May</textPath></text><line stroke="#e1ed5e" stroke-width="0.3" x1="143.8653032363475" x2="146.44561519142675" y1="172.8068346515853" y2="177.08958963109032" /><path d="M 144.38136562736335 173.6633856474863 a86.0,86.0 0 0,1 -40.68145358897372,12.25698825130547" fill="none" id="id30" stroke="none" /><text fill="#e1ed5e" style="font-size:6.75px; font-family:Arial;" text-anchor="middle"><textPath startOffset="21.466115282336833" xlink:href="#id30">June</textPath></text><line stroke="#e1ed5e" stroke-width="0.3" x1="102.19456741930631" x2="102.32365962044197" y1="184.97166512339345" y2="189.96999836594603" /><path d="M 102.22038585953345 185.97133177190398 a86.0,86.0 0 0,1 -42.740103519485714,-10.115201625700543" fill="none" id="id31" stroke="none" /><text fill="#e1ed5e" style="font-size:6.75px; font-family:Arial;" text-anchor="middle"><textPath startOffset="22.20632615414155" xlink:href="#id31">July</textPath></text><line stroke="#e1ed5e" stroke-width="0.3" x1="58.666819895761336" x2="56.23545636021788" y1="174.27360380694188" y2="178.64263932499728" /><path d="M 58.180547188652646 175.14741091055294 a86.0,86.0 0 0,1 -31.652253787137756,-30.449443065178592" fill="none" id="id32" stroke="none" /><text fill="#e1ed5e" style="font-size:6.75px; font-family:Arial;" text-anchor="middle"><textPath startOffset="22.20632615414155" xlink:href="#id32">August</textPath></text><line stroke="#e1ed5e" stroke-width="0.3" x1="26.63291911575756" x2="22.317208475507996" y1="142.92168965132927" y2="145.44649492493687" /><path d="M 25.769776987707644 143.4266507060508 a86.0,86.0 0 0,1 -11.730757126820373,-40.83630448921669" fill="none" id="id33" stroke="none" /><text fill="#e1ed5e" style="font-size:6.75px; font-family:Arial;" text-anchor="middle"><textPath startOffset="21.46611528233685" xlink:href="#id33">September</textPath></text><line stroke="#e1ed5e" stroke-width="0.3" x1="15.007084014347285" x2="10.007500721073583" y1="101.09737516637583" y2="101.16192664675087" /><path d="M 14.007167355692545 101.11028546245083 a86.0,86.0 0 0,1 10.666146001902534,-42.60595125391555" fill="none" id="id34" stroke="none" /><text fill="#e1ed5e" style="font-size:6.75px; font-family:Arial;" text-anchor="middle"><textPath startOffset="22.20632615414155" xlink:href="#id34">October</textPath></text><line stroke="#e1ed5e" stroke-width="0.3" x1="26.266209847984243" x2="21.928928074336255" y1="57.711370442889674" y2="55.22380399835377" /><path d="M 25.398753493254645 57.213857153982495 a86.0,86.0 0 0,1 29.58750427330803,-30.492523968695096" fill="none" id="id35" stroke="none" /><text fill="#e1ed5e" style="font-size:6.75px; font-family:Arial;" text-anchor="middle"><textPath startOffset="21.46611528233685" xlink:href="#id35">November</textPath></text><line stroke="#e1ed5e" stroke-width="0.3" x1="56.762969772571076" x2="54.21961505331055" y1="26.818313649435495" y2="22.513508569990535" /><path d="M 56.25429882871897 25.957352633546506 a86.0,86.0 0 0,1 42.265352541879196,-11.944610805530505" fill="none" id="id36" stroke="none" /><text fill="#e1ed5e" style="font-size:6.75px; font-family:Arial;" text-anchor="middle"><textPath startOffset="22.20632615414155" xlink:href="#id36">December</textPath></text></svg>