<?xml version="1.0" encoding="utf-8" ?>
<svg baseProfile="full" height="200mm" version="1.1" viewBox="0,0,200,200" width="200mm" xmlns="http://www.w3.org/2000/svg" xmlns:ev="http://www.w3.org/2001/xml-events" xmlns:xlink="http://www.w3.org/1999/xlink"><defs /><rect fill="#1a1a1a" height="200" width="200" x="0" y="0" /><rect fill="#1a1a1a" height="200" width="180" x="10" y="0" /><text alignment-baseline="middle" fill="#e1ed5e" style="dominant-baseline: central; font-size:9.0px; font-family:Arial;" text-anchor="middle" x="100.0" y="100.0">2024</text><line stroke="#e1ed5e" stroke-width="0.3" x1="100.0" x2="100.0" y1="15.0" y2="10.0" /><path d="M 100.0 14.0 a86.0,86.0 0 0,1 42.35913384403234,11.155469271406648" fill="none" id="id1" stroke="none" /><text fill="#e1ed5e" style="font-size:6.75px; font-family:Arial;" text-anchor="middle"><textPath startOffset="22.145653131862478" xlink:href="#id1">January</textPath></text><line stroke="#e1ed5e" stroke-width="0.3" x1="143.13028292997686" x2="145.6673583964461" y1="26.7553504044142" y2="22.446841604673864" /><path d="M 143.63769802327073 25.89364864446614 a86.0,86.0 0 0,1 29.32050498858742,28.57503671076993" fill="none" id="id2" stroke="none" /><text fill="#e1ed5e" style="font-size:6.75px; font-family:Arial;" text-anchor="middle"><textPath startOffset="20.669276256404974" xlink:href="#id2">February</textPath></text><line stroke="#e1ed5e" stroke-width="0.3" x1="172.87174338648825" x2="177.1583165268699" y1="56.24261187166439" y2="53.66864786411523" /><path d="M 173.72905801456457 55.72781907015455 a86.0,86.0 0 0,1 12.242430191666344,42.057860355516425" fill="none" id="id3" stroke="none" /><text fill="#e1ed5e" style="font-size:6.75px; font-family:Arial;" text-anchor="middle"><textPath startOffset="22.145653131862474" xlink:href="#id3">March</textPath></text><line stroke="#e1ed5e" stroke-width="0.3" x1="184.99686870605535" x2="189.99668451229388" y1="99.2704041080226" y2="99.22748670261217" /><path d="M 185.99683186730306 99.26182062694052 a86.0,86.0 0 0,1 -10.086455211305974,41.156179273409016" fill="none" id="id4" stroke="none" /><text fill="#e1ed5e" style="font-size:6.75px; font-family:Arial;" text-anchor="middle"><textPath startOffset="21.40746469413373" xlink:href="#id4">April</textPath></text><line stroke="#e1ed5e" stroke-width="0.3" x1="174.33088141563837" x2="178.70328620479359" y1="141.23008692659167" y2="143.65538615756765" /><path d="M 175.20536237346943 141.71514677278685 a86.0,86.0 0 0,1 -30.301960400862466,31.631185727798858" fill="none" id="id5" stroke="none" /><text fill="#e1ed5e" style="font-size:6.75px; font-family:Arial;" text-anchor="middle"><textPath startOffset="22.145653131862474" xlink:href="#id5">May</textPath></text><path d="M 117.21940702142032 112.02048342749411 l 2.5790601650028036 1.800384295078316 a24.145303633144014,24.145303633144014 0 0,0 -0.2401709223987367,0.3378304797824506 l -2.547774144074106 -1.8443920015702706" fill="#ff1b02" stroke="none" /><path d="M 117.01052211995028 112.31430620078461 l 3.0827745678138734 2.2316910503016607 a24.805777710265872,24.805777710265872 0 0,0 -0.2526621788037316,0.3427847707237081 l -3.0440103694263136 -2.284282130294246" fill="#ff2503" stroke="none" /><path d="M 116.57777611688842 112.89097897827486 l 3.4797325434341992 2.7058610727485606 a25.407972631363656,25.407972631363656 0 0,0 -0.2706960193798335,0.34201557754514667 l -3.432770093412804 -2.76519659420839" fill="#ff2e04" stroke="none" /><path d="M 116.1254893667686 113.45245675266167 l 4.829455481548855 4.028903528244355 a27.289332547111982,27.289332547111982 0 0,0 -0.303178554357308,0.35714357470127717 l -4.759582363684433 -4.1112138853951885" fill="#ff4806" stroke="none" /><path d="M 115.6541949942343 113.99807769240083 l 4.698450098488784 4.201383050149702 a27.302940017331156,27.302940017331156 0 0,0 -0.31541695342765635,0.3466984847345233 l -4.625635444219247 -4.281419110441897" fill="#ff4806" stroke="none" /><path d="M 115.41159269507618 114.26474011684316 l 2.7652714391271336 2.559493960950572 a24.767988252130664,24.767988252130664 0 0,0 -0.2914887526953781,0.3095509541317171 l -2.7209268526954955 -2.6065863750267857" fill="#ff2403" stroke="none" /><path d="M 114.91283532996324 114.78537596483092 l 4.462788153033247 4.424644893745539 a27.28442205255204,27.28442205255204 0 0,0 -0.3326205952398805,0.32977770125217304 l -4.386175637663402 -4.500602605226374" fill="#ff4806" stroke="none" /><path d="M 114.65682725009322 115.03919595460226 l 43.97048175027964 45.117587863806776 a84.0,84.0 0 0,0 -1.0413100565387516,0.9975514787776794 l -43.18949920787558 -45.86575147289004" fill="#4dd2ff" stroke="none" /><path d="M 114.13192950727249 115.5334660781643 l 2.9626814078351713 3.2565058526036923 a25.40253466679983,25.40253466679983 0 0,0 -0.3250737843952698,0.2906829825106775 l -2.9063425966165237 -3.3068843649977566" fill="#ff2e04" stroke="none" /><path d="M 113.86319453409587 115.77377054828091 l 2.0752886332635874 2.3612975091740096 a24.143652149679482,24.143652149679482 0 0,0 -0.3136611304714384,0.27093301394299063 l -2.0344480230292934 -2.396574655581718" fill="#ff1b02" stroke="none" /><path d="M 113.31354834802062 116.24036423190432 l 3.983507668463926 4.859231646239253 a27.283348274329853,27.283348274329853 0 0,0 -0.36475138143559316,0.2938178934889759 l -3.8995055166730803 -4.9268978335216325" fill="#ff4806" stroke="none" /><path d="M 112.7482090630111 116.68781488649013 l 2.768542867662314 3.6241114851899563 a25.560593565224774,25.560593565224774 0 0,0 -0.35096765505710775,0.263372671397738 l -2.70592222369444 -3.671103183851709" fill="#ff3004" stroke="none" /><path d="M 111.8722381534696 117.32195027204791 l 1.8353503089739778 2.6778309509015386 a24.246427168173824,24.246427168173824 0 0,0 -0.3453426841136407,0.2323619700259645 l -1.7891113367633338 -2.708942594984624" fill="#ff1d02" stroke="none" /><path d="M 111.5731344415666 117.5232005979908 l 2.4283377324831763 3.6768128306831196 a25.406333706708736,25.406333706708736 0 0,0 -0.36598957037868657,0.23723001775892216 l -2.36486252984748 -3.7179566901459364" fill="#ff2e04" stroke="none" /><path d="M 111.27062007382361 117.71928675628689 l 3.390414119399558 5.330294128513173 a27.31719426624557,27.31719426624557 0 0,0 -0.3978370432113247,0.24827973886436205 l -3.2984129473985186 -5.3877096642190825" fill="#ff4906" stroke="none" /><line stroke="#e1ed5e" stroke-width="0.3" x1="143.1302829299769" x2="145.66735839644613" y1="173.24464959558577" y2="177.55315839532614" /><path d="M 143.63769802327073 174.10635135553383 a86.0,86.0 0 0,1 -40.68552437913181,11.842963189579606" fill="none" id="id6" stroke="none" /><text fill="#e1ed5e" style="font-size:6.75px; font-family:Arial;" text-anchor="middle"><textPath startOffset="21.407464694133747" xlink:href="#id6">June</textPath></text><path d="M 110.65571695917076 118.09573695890943 l 3.190043686562116 5.417391589946104 a27.28685218221278,27.28685218221278 0 0,0 -0.4056743228412738,0.23421617949572948 l -3.0965768958604434 -5.471354666718005" fill="#ff4806" stroke="none" /><path d="M 110.34350942703117 118.27599006163325 l 1.568503699233519 2.771395745423961 a24.184468280932197,24.184468280932197 0 0,0 -0.363061627710403,0.20138416476601068 l -1.5206978833670215 -2.7979128256231154" fill="#ff1c02" stroke="none" /><path d="M 110.02825361518725 118.45085714620011 l 2.4079088364966683 4.430281050729425 a26.04236206091262,26.04236206091262 0 0,0 -0.3946176605294443,0.21011167730380728 l -2.3315023601806706 -4.470963195755801" fill="#ff3705" stroke="none" /><path d="M 109.3889696526874 118.78422872680471 l 2.8136509533076457 5.62918669666752 a27.29320066047378,27.29320066047378 0 0,0 -0.4208868237489596,0.20587683640331594 l -2.7166038802966166 -5.676657283168059" fill="#ff4806" stroke="none" /><path d="M 108.73861861582097 119.09545874513695 l 3.190201779179959 6.9711666272633535 a28.66645625676905,28.66645625676905 0 0,0 -0.4492260257965785,0.20093308741444085 l -3.0700623505277536 -7.024903465587644" fill="#ff5b08" stroke="none" /><path d="M 108.4095320186766 119.2426549942271 l 1.0069689038739693 2.3041419146901756 a23.514568817193368,23.514568817193368 0 0,0 -0.37126696391773534,0.15847178999815942 l -0.9672668647858028 -2.321088354347739" fill="#ff1202" stroke="none" /><path d="M 107.407793817531 119.65005319985036 l 1.6148503471933706 4.283582401693079 a25.577861928447078,25.577861928447078 0 0,0 -0.4121821882894944,0.15135900885810732 l -1.541079007249749 -4.310672259559908" fill="#ff3004" stroke="none" /><path d="M 106.72888874123015 119.89276391827305 l 1.420813377005508 4.200382287124543 a25.4341765876279,25.4341765876279 0 0,0 -0.4147917699007093,0.13635029357778494 l -1.3484988694570645 -4.224153502104347" fill="#ff2e04" stroke="none" /><path d="M 106.38641147887787 120.00534299687104 l 1.9894113671157672 6.231802772598342 a27.541645311706667,27.541645311706667 0 0,0 -0.4516296928196906,0.1399160332986668 l -1.8821410414244524 -6.265035393703654" fill="#ff4c07" stroke="none" /><path d="M 106.0420521117495 120.11202640906438 l 0.36208959336021396 1.2052784930382485 a22.258493194022247,22.258493194022247 0 0,0 -0.3668835504087119,0.10679445450582009 l -0.34134603056989526 -1.211316641846587" fill="#ff0000" stroke="none" /><path d="M 105.69591212413111 120.21278271476187 l 1.4482407888888544 5.139295646863797 a26.33945326119394,26.33945326119394 0 0,0 -0.4362548444502167,0.11890319779403102 l -1.3598045435039425 -5.16339933880197" fill="#ff3b05" stroke="none" /><path d="M 105.3480935250658 120.30758222061773 l 1.620751238818434 6.154256444322074 a27.364095140757346,27.364095140757346 0 0,0 -0.45527952370748775,0.11573027456971326 l -1.5148664218855488 -6.181171950727057" fill="#ff4906" stroke="none" /><path d="M 104.9986988182912 120.39639698878246 l 1.4963410195539455 6.10558198740507 a27.286268197565626,27.286268197565626 0 0,0 -0.4558987692836134,0.10759086820294282 l -1.391310096530453 -6.130368999254237" fill="#ff4806" stroke="none" /><path d="M 104.29559338865022 120.5559693870025 l 1.2939599945037623 6.192066992491397 a27.32582216845191,27.32582216845191 0 0,0 -0.4599892463001805,0.09201073201021855 l -1.1874742626726231 -6.213367121164477" fill="#ff4906" stroke="none" /><path d="M 103.94208987418118 120.62667999033965 l 0.7784371708623089 4.073112214190033 a25.14683102360877,25.14683102360877 0 0,0 -0.4247003583492736,0.07739455280453672 l -0.7084020789619782 -4.085874940925933" fill="#ff2a04" stroke="none" /><path d="M 103.58742460773223 120.69131181640829 l 1.7172324350898656 9.904540348836964 a31.052303554800964,31.052303554800964 0 0,0 -0.526000140784179,0.08655312299950522 l -1.5469547912526145 -9.93255947033214" fill="#ff7c0b" stroke="none" /><path d="M 102.51750503828377 120.84855314841334 l 0.753280877364154 6.238246267072533 a27.28356177409333,27.28356177409333 0 0,0 -0.4654628885768783,0.052156087527717034 l -0.6460820871864764 -6.25025811510722" fill="#ff4806" stroke="none" /><path d="M 101.80034050326958 120.92268563240118 l 0.538934068410889 6.263230799659224 a27.286374947447364,27.286374947447364 0 0,0 -0.46702710363337274,0.03615085150705768 l -0.4313379700022804 -6.271559418161336" fill="#ff4806" stroke="none" /><path d="M 101.44090949804482 120.95050786540614 l 0.4314069075567952 6.272561755074268 a27.28737965221666,27.28737965221666 0 0,0 -0.4675960801598007,0.028129419038916265 l -0.3236664752645294 -6.279043151937876" fill="#ff4806" stroke="none" /><path d="M 101.08105385017728 120.97215588758144 l 0.32341433563115735 6.274151710410102 a27.282481716466332,27.282481716466332 0 0,0 -0.46792605243571594,0.020094758053474375 l -0.2156625225946118 -6.278779036889407" fill="#ff4806" stroke="none" /><path d="M 100.72087961077811 120.9876233191556 l 0.21606712289537458 6.290558533188464 a27.294268159291157,27.294268159291157 0 0,0 -0.4684043260376837,0.012064433894200225 l -0.10804948278694698 -6.293340684432709" fill="#ff4806" stroke="none" /><line stroke="#e1ed5e" stroke-width="0.3" x1="101.45913802915013" x2="101.54496967792366" y1="184.9874750549273" y2="189.98673829345242" /><path d="M 101.47630435890484 185.9873277026323 a86.0,86.0 0 0,1 -42.54439059252881,-10.42667462771756" fill="none" id="id7" stroke="none" /><text fill="#e1ed5e" style="font-size:6.75px; font-family:Arial;" text-anchor="middle"><textPath startOffset="22.145653131862474" xlink:href="#id7">July</textPath></text><path d="M 99.63950707515114 120.99690560180557 l -0.10869592540554056 6.330992726134546 a27.331925749925396,27.331925749925396 0 0,0 -0.46905057814667195,-0.012081079056110682 l 0.21735981762295642 -6.328193929728387" fill="#ff4906" stroke="none" /><path d="M 99.27912038922189 120.98762331915562 l -0.21612036544960234 6.29210863206213 a27.29581917227876,27.29581917227876 0 0,0 -0.46815480519774033,-0.0201045816813418 l 0.3241009312481814 -6.2874714819549595" fill="#ff4806" stroke="none" /><path d="M 98.91894614982273 120.97215588758144 l -0.32359826826113863 6.277719954293826 a27.28605469780215,27.28605469780215 0 0,0 -0.4675733757631952,-0.028128053198794998 l 0.4313159961567801 -6.271239923270339" fill="#ff4806" stroke="none" /><path d="M 98.19965949673042 120.92268563240118 l -0.8615892886229324 10.012973544373146 a31.049973895617157,31.049973895617157 0 0,0 -0.5306594851438512,-0.05025400496770951 l 1.0333483371517989 -9.996707783900254" fill="#ff7c0b" stroke="none" /><path d="M 97.48249496171623 120.84855314841334 l -0.7532485077151363 6.2379781999434885 a27.28329175968658,27.28329175968658 0 0,0 -0.46449437599581417,-0.06013809647403585 l 0.8602207056017445 -6.2241285072690555" fill="#ff4806" stroke="none" /><path d="M 96.76829788921471 120.74984581791261 l -0.9672263958425465 6.210287302709122 a27.285156742914587,27.285156742914587 0 0,0 -0.4621878136275294,-0.07605282884931842 l 1.0736917125231393 -6.192768475364135" fill="#ff4806" stroke="none" /><path d="M 96.41257539226777 120.69131181640829 l -1.0731693031860936 6.189755357132934 a27.28209867277304,27.28209867277304 0 0,0 -0.4607625140507333,-0.08396627886695138 l 1.1792665507878841 -6.170420904334616" fill="#ff4806" stroke="none" /><path d="M 95.00130118170881 120.39639698878247 l -1.2732410072887261 5.195257804297128 a26.349004235907074,26.349004235907074 0 0,0 -0.4383906004194289,-0.11143717631351237 l 1.3622369009335338 -5.172635396148353" fill="#ff3b05" stroke="none" /><path d="M 94.30408787586889 120.21278271476187 l -1.0274853432558368 3.646183005149656 a24.78818909739835,24.78818909739835 0 0,0 -0.4085801651074217,-0.11893173135164332 l 1.0899255207448653 -3.6280075794954967" fill="#ff2503" stroke="none" /><path d="M 93.95794788825049 120.11202640906438 l -1.0849426695828448 3.6114212885616412 a24.770870498937583,24.770870498937583 0 0,0 -0.40619434705870794,-0.12584004703934648 l 1.1467776495131865 -3.5922646537156457" fill="#ff2403" stroke="none" /><path d="M 93.61358852112213 120.00534299687104 l -2.489648750536682 7.798789251357315 a29.18654168059598,29.18654168059598 0 0,0 -0.4759869948714541,-0.15646637951728518 l 2.62315848305588 -7.754901950438009" fill="#ff6309" stroke="none" /><path d="M 93.27111125876986 119.89276391827306 l -2.0129406808381347 5.950901446778931 a27.28213006979708,27.28213006979708 0 0,0 -0.4423527530991834,-0.15387324992068366 l 2.1147992059823397 -5.915469764289657" fill="#ff4806" stroke="none" /><path d="M 92.59220618246901 119.65005319985036 l -2.2321535773942545 5.921052559836574 a27.3278252985857,27.3278252985857 0 0,0 -0.4375415652912187,-0.1692504769180067 l 2.333467405179001 -5.881862194780527" fill="#ff4906" stroke="none" /><path d="M 92.25597844496254 119.51999308798841 l -1.3905804144518763 3.5051710387783612 a24.770933292985667,24.770933292985667 0 0,0 -0.3939115554924641,-0.16020040036246444 l 1.450546431134781 -3.4807833818366056" fill="#ff2403" stroke="none" /><path d="M 91.26138138417905 119.09545874513695 l -4.533897922982762 9.907385200017218 a31.895527150053255,31.895527150053255 0 0,0 -0.4959166472147953,-0.23211403119598673 l 4.7033032840690465 -9.828094937250704" fill="#ff870c" stroke="none" /><path d="M 90.93487009805054 118.94263497670748 l -3.302629840558768 6.901226150044765 a28.65077030355839,28.65077030355839 0 0,0 -0.4418218244549549,-0.21611719431488502 l 3.4206119142757925 -6.843515205632659" fill="#ff5b08" stroke="none" /><path d="M 90.28995756902619 118.62028667847754 l -2.9048632139440063 5.570458233309332 a27.282374966584598,27.282374966584598 0 0,0 -0.4134074688700926,-0.22011619190503845 l 3.000059498600661 -5.51977157368172" fill="#ff4806" stroke="none" /><path d="M 89.97174638481275 118.45085714620012 l -3.000203433375444 5.52003639745561 a27.282676378015385,27.282676378015385 0 0,0 -0.4095724900393125,-0.22718295606687913 l 3.094520111570859 -5.467720525955583" fill="#ff4806" stroke="none" /><line stroke="#e1ed5e" stroke-width="0.3" x1="58.13341422392154" x2="55.67067388415222" y1="173.97424548756322" y2="178.32567169271397" /><path d="M 57.64086615596768 174.84453072859336 a86.0,86.0 0 0,1 -31.369924170532247,-30.572349798747897" fill="none" id="id8" stroke="none" /><text fill="#e1ed5e" style="font-size:6.75px; font-family:Arial;" text-anchor="middle"><textPath startOffset="22.145653131862474" xlink:href="#id8">August</textPath></text><path d="M 89.65649057296885 118.27599006163327 l -3.095123228768555 5.468786176254337 a27.283900861952965,27.283900861952965 0 0,0 -0.4056304454881833,-0.23419084689411218 l 3.1885461421171377 -5.414848432084053" fill="#ff4806" stroke="none" /><path d="M 89.03521579738668 117.91015095944536 l -4.366292737441525 7.132011046972486 a29.362421529866346,29.362421529866346 0 0,0 -0.4276229414014464,-0.26686834229050116 l 4.488079807632684 -7.0560069078404375" fill="#ff6509" stroke="none" /><path d="M 88.72937992617639 117.7192867562869 l -4.140359630064004 6.509333033916109 a28.71453137997994,28.71453137997994 0 0,0 -0.4136456335928994,-0.2681201021701538 l 4.251490895913912 -6.43729909004206" fill="#ff5c08" stroke="none" /><path d="M 88.1277618465304 117.32195027204791 l -3.5516504268218294 5.181964115091995 a27.282274496107668,27.282274496107668 0 0,0 -0.38403686976162915,-0.26808756089996805 l 3.640082387757224 -5.120231738386899" fill="#ff4806" stroke="none" /><path d="M 87.83215693770417 117.11559508785305 l -3.2908523179926172 4.628995909983151 a26.679552105006003,26.679552105006003 0 0,0 -0.3709969452085383,-0.268573177862399 l 3.3698302735751096 -4.571821960747687" fill="#ff4006" stroke="none" /><path d="M 87.2517909369889 116.68781488649013 l -3.0509786266290417 3.9938289599870647 a26.025847226267288,26.025847226267288 0 0,0 -0.35269987157326177,-0.27426155342146896 l 3.119088442837532 -3.9408663549448026" fill="#ff3605" stroke="none" /><path d="M 86.96720088162412 116.46651593811092 l -7.018492635998348 8.867636169518665 a32.309032236072134,32.309032236072134 0 0,0 -0.43193980527829823,-0.3479401317176863 l 7.1696832116319085 -8.745847744007568" fill="#ff8d0d" stroke="none" /><path d="M 86.40962598614128 116.0094264158162 l -4.066685347668104 4.790545114018171 a27.28388830314335,27.28388830314335 0 0,0 -0.35445736195026273,-0.30617182703870766 l 4.148322189381229 -4.720029154514741" fill="#ff4806" stroke="none" /><path d="M 86.13680546590413 115.77377054828092 l -4.149399983605394 4.721255486493884 a27.28552094839346,27.28552094839346 0 0,0 -0.34917017810366036,-0.3122301263504554 l 4.229835188532426 -4.649329830260045" fill="#ff4806" stroke="none" /><path d="M 85.60350026404147 115.28858382429668 l -4.308313544510191 4.575279684274678 a27.284484846600122,27.284484846600122 0 0,0 -0.3382334340267099,-0.3240199786477724 l 4.386219464402215 -4.500647575321324" fill="#ff4806" stroke="none" /><path d="M 85.34317274990678 115.03919595460226 l -4.385154474649073 4.499554802014123 a27.28295895123175,27.28295895123175 0 0,0 -0.3326027587751377,-0.3297600172349308 l 4.461749153554174 -4.423614774550534" fill="#ff4806" stroke="none" /><path d="M 84.83555147118756 114.52719865689866 l -8.247089818024596 7.900525488948453 a32.42071772998918,32.42071772998918 0 0,0 -0.3815519644309741,-0.40519496395070204 l 8.381497616191822 -7.757789065053261" fill="#ff8e0d" stroke="none" /><path d="M 84.58840730492382 114.26474011684316 l -4.064631729703778 3.762162447585527 a26.538510393611034,26.538510393611034 0 0,0 -0.3065858875105574,-0.33699159631658016 l 4.128615318056215 -3.691833275711273" fill="#ff3e05" stroke="none" /><path d="M 84.1078160697243 113.72728997021213 l -4.7576435193928726 4.109539157874159 a27.286770549950273,27.286770549950273 0 0,0 -0.30315009112559166,-0.3571100450858846 l 4.827488174025576 -4.02726233033872" fill="#ff4806" stroke="none" /><path d="M 83.8745106332314 113.45245675266167 l -4.8241032478458195 4.024438504530496 a27.28236240777498,27.28236240777498 0 0,0 -0.29692717652292394,-0.3622028756744006 l 4.892477243607373 -3.9410333471575996" fill="#ff4806" stroke="none" /><path d="M 83.4222238831116 112.89097897827486 l -6.446487176714094 5.012827419841986 a29.166127335564816,29.166127335564816 0 0,0 -0.3039499664581525,-0.3978802630187189 l 6.531589120526542 -4.901426243582397" fill="#ff6209" stroke="none" /><path d="M 82.98947788004972 112.3143062007846 l -4.07459630962907 2.94969350426417 a26.030211412608924,26.030211412608924 0 0,0 -0.25891991172224327,-0.36420328126622253 l 4.124631319881273 -2.8793129962884434" fill="#ff3605" stroke="none" /><path d="M 82.78059297857968 112.02048342749411 l -5.160633010105355 3.6025226360108253 a27.293671615834388,27.293671615834388 0 0,0 -0.264891923585681,-0.3864852329025534 l 5.22171467050636 -3.513402668038221" fill="#ff4806" stroke="none" /><path d="M 82.37810715431573 111.42229804090323 l -2.6388951388342323 1.7104999467657835 a24.144769883735325,24.144769883735325 0 0,0 -0.22245646725080018,-0.349738515555358 l 2.6678692977109226 -1.6649477565317536" fill="#ff1b02" stroke="none" /><line stroke="#e1ed5e" stroke-width="0.3" x1="26.387840678322732" x2="22.057713659400548" y1="142.50000000000003" y2="145.00000000000006" /><path d="M 25.521815274538298 143.00000000000003 a86.0,86.0 0 0,1 -11.493303480769221,-40.785679425670985" fill="none" id="id9" stroke="none" /><text fill="#e1ed5e" style="font-size:6.75px; font-family:Arial;" text-anchor="middle"><textPath startOffset="21.40746469413373" xlink:href="#id9">September</textPath></text><path d="M 81.81346652052679 110.50000000000001 l -9.968853660452988 5.755520344374526 a32.51104068874904,32.51104068874904 0 0,0 -0.2748988616549628,-0.48571994824414305 l 10.066185887129329 -5.583543626031261" fill="#ff900d" stroke="none" /><path d="M 81.4637452351635 109.86951160357371 l -5.556349154140937 2.9584429619693298 a27.294870982152737,27.294870982152737 0 0,0 -0.21665879767117444,-0.4154718120677624 l 5.606316020787061 -2.8626249067970644" fill="#ff4806" stroke="none" /><path d="M 81.29705330413844 109.54985784667822 l -5.595142122688542 2.8569194348107847 a27.28232473134613,27.28232473134613 0 0,0 -0.20939845085637826,-0.4189371721740442 l 5.643360486756658 -2.760450406472988" fill="#ff4806" stroke="none" /><path d="M 80.9802524753101 108.90220220490708 l -4.971846559026422 2.3270752328741184 a26.489493359678924,26.489493359678924 0 0,0 -0.1892302629557463,-0.41350227518350424 l 5.011061286837225 -2.2413839754759253" fill="#ff3d05" stroke="none" /><path d="M 80.83023694016515 108.57439118712176 l -5.735911887228569 2.565600429303551 a27.283549215283713,27.283549215283713 0 0,0 -0.187562861190929,-0.4291805322355034 l 5.779108630436466 -2.466757827292198" fill="#ff4806" stroke="none" /><path d="M 80.5471966667186 107.91128576633889 l -3.5228586356364033 1.4327159383373589 a24.80305244857915,24.80305244857915 0 0,0 -0.15701669797137258,-0.3957846497865458 l 3.5469340085739005 -1.3720302713372476" fill="#ff2503" stroke="none" /><path d="M 80.41425534168474 107.57618678355246 l -3.517376176364824 1.3605966668642213 a24.771360292512618,24.771360292512618 0 0,0 -0.1500074737802411,-0.3979126461620834 l 3.540214333959501 -1.300015740507993" fill="#ff2403" stroke="none" /><path d="M 80.16572619554312 106.89939002012753 l -5.341044725582976 1.8578926075156605 a26.654955676372634,26.654955676372634 0 0,0 -0.14662076037921046,-0.4334582252593664 l 5.372150907534554 -1.7659327077821325" fill="#ff3f05" stroke="none" /><path d="M 80.05021161711548 106.5578916946017 l -2.9853760275058674 0.9813523973437249 a24.142534415623636,24.142534415623636 0 0,0 -0.1260416010721097,-0.39482352016649797 l 3.001782344355232 -0.9299598434858353" fill="#ff1b02" stroke="none" /><path d="M 79.83685265289637 105.86919833188381 l -8.892018485183563 2.5883369873709774 a30.261073431359826,30.261073431359826 0 0,0 -0.14090349483620843,-0.5000167949938783 l 8.935140472094346 -2.4353122684741035" fill="#ff710a" stroke="none" /><path d="M 79.73907114497094 105.5222062557868 l -6.060789243460026 1.6518950594376545 a27.281872614199948,27.281872614199948 0 0,0 -0.11927442330137353,-0.4529044128822778 l 6.088253147566133 -1.5476101421825739" fill="#ff4806" stroke="none" /><path d="M 79.56144815229197 104.8234425847677 l -12.835031352706395 3.029032451260244 a34.187610375490465,34.187610375490465 0 0,0 -0.1298952370125033,-0.5723423815567791 l 12.885137451276563 -2.8082557357644387" fill="#ffa60f" stroke="none" /><path d="M 79.48165901384964 104.47187691870673 l -4.912027757929208 1.070553587619836 a26.02733544520681,26.02733544520681 0 0,0 -0.09139596651769753,-0.43736278549950647 l 4.929681435271273 -0.9860743508349203" fill="#ff3605" stroke="none" /><path d="M 79.407916724674 104.11899336999214 l -6.1622572691926605 1.2326240379186986 a27.28432786147992,27.28432786147992 0 0,0 -0.08792531566550452,-0.46006240526381476 l 6.182508877140322 -1.1266590676215693" fill="#ff4806" stroke="none" /><path d="M 79.34024301695615 103.76489593502545 l -3.774096526598973 0.6877661089163841 a24.83625166179963,24.83625166179963 0 0,0 -0.07283548054289185,-0.4200956964956541 l 3.7853468246340993 -0.6228773795001373" fill="#ff2503" stroke="none" /><path d="M 79.2786578344484 103.40968896794605 l -6.210183023814614 1.0218832533168987 a27.29369673345362,27.29369673345362 0 0,0 -0.07210540803822135,-0.4629684445350075 l 6.226809923991103 -0.9151266268504412" fill="#ff4806" stroke="none" /><path d="M 79.17382384314188 102.69636545807758 l -6.234091476379561 0.8071279524767844 a27.28612377125504,27.28612377125504 0 0,0 -0.05615473064068119,-0.46504172523728193 l 6.247028293279904 -0.6999925503161031" fill="#ff4806" stroke="none" /><path d="M 79.13060592940153 102.33845913500099 l -6.2425851632841844 0.6994946883326004 a27.281652835031664,27.281652835031664 0 0,0 -0.048155504749542666,-0.4658608252994952 l 6.253673060515393 -0.5922293407501739" fill="#ff4806" stroke="none" /><path d="M 79.06263194458094 101.62068470465958 l -6.264264017071257 0.4848936528958359 a27.28300290706541,27.28300290706541 0 0,0 -0.03213682949727547,-0.46726244782582105 l 6.271664807733599 -0.37728778091567156" fill="#ff4806" stroke="none" /><path d="M 79.01933749520258 100.90099992219065 l -18.824368254220786 0.8083993691077591 a39.841718332214,39.841718332214 0 0,0 -0.023478749283074384,-0.6835581678141698 l 18.835471690500707 -0.48513493672946945" fill="#ffee16" stroke="none" /><line stroke="#e1ed5e" stroke-width="0.3" x1="15.003131293944662" x2="10.003315487706104" y1="100.72959589197737" y2="100.7725132973878" /><path d="M 14.003168132696942 100.73817937305945 a86.0,86.0 0 0,1 10.791469493833604,-42.45332614584628" fill="none" id="id10" stroke="none" /><text fill="#e1ed5e" style="font-size:6.75px; font-family:Arial;" text-anchor="middle"><textPath startOffset="22.145653131862435" xlink:href="#id10">October</textPath></text><path d="M 79.00077361379809 100.18025310272382 l -6.2832863413032545 0.0539344563219868 a27.28351781825967,27.28351781825967 0 0,0 0.0,-0.46837511809160637 l 6.2832863413032545 0.053934456321984486" fill="#ff4806" stroke="none" /><path d="M 79.00077361379809 99.81974689727619 l -6.282627028087576 -0.0539287969109849 a27.282858480754822,27.282858480754822 0 0,0 0.008040087423431708,-0.4682947847889509 l 6.280775509065478 0.1617704976689882" fill="#ff4806" stroke="none" /><path d="M 79.00696218219943 99.45929381324524 l -6.437664642340249 -0.16581140521807722 a27.439799645123923,27.439799645123923 0 0,0 0.016170290921529527,-0.47078037684539636 l 6.433869664421869 0.27629804662761215" fill="#ff4a06" stroke="none" /><path d="M 79.01933749520258 99.09900007780938 l -1.8854305980906667 -0.0809685023905737 a22.88716836519583,22.88716836519583 0 0,0 0.020226165080852385,-0.3923821991050812 l 1.883762843553244 0.11332249487236688" fill="#ff0901" stroke="none" /><path d="M 79.06263194458094 98.37931529534042 l -3.2126975259978012 -0.24868310703143515 a24.22230797430587,24.22230797430587 0 0,0 0.035648751875493455,-0.4142925337311848 l 3.2079551514245646 0.3037966881383006" fill="#ff1d02" stroke="none" /><path d="M 79.0935383218832 98.0201363427161 l -6.324239259323316 -0.5989120331446821 a27.352534756505612,27.352534756505612 0 0,0 0.04828062014218102,-0.46707120322773155 l 6.313026246699471 0.7073877586553263" fill="#ff4906" stroke="none" /><path d="M 79.13060592940154 97.66154086499901 l -6.251359096955507 -0.7004778259011497 a27.290481678191867,27.290481678191867 0 0,0 0.05616369919524754,-0.46511599773476103 l 6.23841331150059 0.807687500559347" fill="#ff4806" stroke="none" /><path d="M 79.17382384314186 97.30363454192245 l -6.232615575913161 -0.8069368676128441 a27.284635552315518,27.284635552315518 0 0,0 0.06412601801426167,-0.4639839220110473 l 6.217845041343692 0.9138090978239584" fill="#ff4806" stroke="none" /><path d="M 79.22317932658666 96.9465228501225 l -5.837679345598342 -0.8579378322741174 a26.900386213297626,26.900386213297626 0 0,0 0.07106634704847963,-0.45629692760880497 l 5.822091506411595 0.9580229418143724" fill="#ff4306" stroke="none" /><path d="M 79.34024301695615 96.23510406497455 l -6.3515792289340895 -1.1574693177481346 a27.456182612268282,27.456182612268282 0 0,0 0.08847912748334787,-0.4629601827133861 l 6.330773809168583 1.2663320654948351" fill="#ff4b06" stroke="none" /><path d="M 79.407916724674 95.88100663000787 l -6.163082364791779 -1.2327890801466699 a27.285169301724203,27.285169301724203 0 0,0 0.09581289737399312,-0.45849939859385014 l 6.14101175659342 1.338404930025929" fill="#ff4806" stroke="none" /><path d="M 79.48165901384962 95.52812308129327 l -6.326275675318126 -1.3787823388317086 a27.474782209309904,27.474782209309904 0 0,0 0.10438996197008191,-0.4599614336807964 l 6.3016748517903824 1.4871781064515133" fill="#ff4b07" stroke="none" /><path d="M 79.64726062577567 94.8264132398404 l -6.132144380012026 -1.5587671218349881 a27.327159681676036,27.327159681676036 0 0,0 0.11947241516699267,-0.45365622024525126 l 6.104482484040307 1.663803846453024" fill="#ff4906" stroke="none" /><path d="M 79.73907114497095 94.47779374421319 l -6.22873437963946 -1.6976692531222102 a27.455943994885573,27.455943994885573 0 0,0 0.1278420764445588,-0.45366642895180687 l 6.198673811120319 1.8043436059770301" fill="#ff4b06" stroke="none" /><path d="M 79.83685265289637 94.1308016681162 l -6.087224608601379 -1.7719023674018481 a27.339869197007655,27.339869197007655 0 0,0 0.13503770684443067,-0.4494966074511917 l 6.055910581753318 1.8761365784437631" fill="#ff4906" stroke="none" /><path d="M 79.94057633289273 93.78553927170692 l -3.2534768973361134 -1.0079354593849987 a24.406030800181565,24.406030800181565 0 0,0 0.12741724397747245,-0.39913270197447676 l 3.2356949375813837 1.0636371950508672" fill="#ff1f03" stroke="none" /><path d="M 80.05021161711548 93.44210830539832 l -5.971050323576245 -1.9628028414889682 a27.285382801487682,27.285382801487682 0 0,0 0.15008854721669013,-0.4437101208590263 l 5.93647635478719 2.065014636822156" fill="#ff4806" stroke="none" /><path d="M 80.28708602549916 92.7611449362534 l -3.5875592894873187 -1.3174014639737726 a24.82179647193136,24.82179647193136 0 0,0 0.1503128992301313,-0.39872282345464344 l 3.5644157064427517 1.378792567622561" fill="#ff2503" stroke="none" /><path d="M 80.41425534168474 92.42381321644754 l -3.6084684137692165 -1.3958331011763756 a24.869030154897967,24.869030154897967 0 0,0 0.1574343724333033,-0.396837462275764 l 3.5839753663697818 1.4575715806657223" fill="#ff2603" stroke="none" /><path d="M 80.5471966667186 92.08871423366112 l -2.427864600507753 -0.9873913968858787 a23.620967052261992,23.620967052261992 0 0,0 0.15598179320019515,-0.3742995205024672 l 2.410556962771079 1.0289234268296097" fill="#ff1402" stroke="none" /><path d="M 80.68587082218212 91.75594674310238 l -3.6195460724370077 -1.5449689868097163 a24.935485095982198,24.935485095982198 0 0,0 0.17142091349192712,-0.39224459694007047 l 3.5924912769281034 1.6068756535256536" fill="#ff2703" stroke="none" /><path d="M 80.9802524753101 91.09779779509293 l -12.133144640022081 -5.678924329918097 a34.396394305955326,34.396394305955326 0 0,0 0.2548948764474508,-0.5326322572541092 l 12.033870505614725 5.886369089237293" fill="#ffa90f" stroke="none" /><path d="M 81.46374523516351 90.13048839642627 l -6.377965373906578 -3.395907321276919 a28.225692274478167,28.225692274478167 0 0,0 0.2313897231132137,-0.42573102856065376 l 6.318730301178014 3.5048931833121926" fill="#ff5507" stroke="none" /><path d="M 81.63589988554816 89.8137432299009 l -5.281032505898445 -2.92929970872832 a27.03904803027032,27.03904803027032 0 0,0 0.22863013198860388,-0.4039675363077351 l 5.229969008888472 3.0195240151351603" fill="#ff4506" stroke="none" /><line stroke="#e1ed5e" stroke-width="0.3" x1="26.387840678322718" x2="22.05771365940052" y1="57.49999999999999" y2="54.99999999999999" /><path d="M 25.521815274538284 56.99999999999999 a86.0,86.0 0 0,1 29.574782752854787,-30.34633250058573" fill="none" id="id11" stroke="none" /><text fill="#e1ed5e" style="font-size:6.75px; font-family:Arial;" text-anchor="middle"><textPath startOffset="21.40746469413373" xlink:href="#id11">November</textPath></text><path d="M 81.81346652052679 89.5 l -4.709981022055563 -2.719308810961808 a26.438617621923616,26.438617621923616 0 0,0 0.2303008681369487,-0.3911012226754062 l 4.662606443788834 2.7997612019307874" fill="#ff3c05" stroke="none" /><path d="M 81.99639281039701 89.18935116829357 l -8.85673642522281 -5.3182157486395445 a31.33078887863585,31.33078887863585 0 0,0 0.2808313412306648,-0.4587168906056415 l 8.764137119536752 5.469469755369729" fill="#ff800b" stroke="none" /><path d="M 82.37810715431573 88.57770195909679 l -6.614418352949457 -4.287386063246437 a28.882398708715158,28.882398708715158 0 0,0 0.2732488937509141,-0.4137336520674019 l 6.539845020277814 4.4002995936529" fill="#ff5e08" stroke="none" /><path d="M 82.576782715395 88.27688183743585 l -6.277809005036652 -4.223990068302844 a28.566569764486438,28.566569764486438 0 0,0 0.2772457191420806,-0.40450978981699265 l 6.204373549079259 4.331134593189872" fill="#ff5a08" stroke="none" /><path d="M 82.78059297857968 87.97951657250589 l -5.2637301282143465 -3.6744924313766005 a27.41940413830718,27.41940413830718 0 0,0 0.2727380729427221,-0.3836402555185653 l 5.199876956741652 3.764309913604686" fill="#ff4a06" stroke="none" /><path d="M 82.98947788004972 87.6856937992154 l -5.349246352768901 -3.872441837289059 a27.60380513990215,27.60380513990215 0 0,0 0.28116181767747017,-0.3814500043700631 l 5.281982515507612 3.9636981509279856" fill="#ff4d07" stroke="none" /><path d="M 83.42222388311158 87.10902102172516 l -8.926149743514328 -6.941028029890795 a32.30725516451144,32.30725516451144 0 0,0 0.3442008340061898,-0.4348865096127021 l 8.805682478866578 7.09323448341818" fill="#ff8d0d" stroke="none" /><path d="M 83.8745106332314 86.54754324733833 l -5.859770113047373 -4.888428638250105 a28.631096928294582,28.631096928294582 0 0,0 0.31808526505361334,-0.374703642419134 l 5.774990284486646 4.988299063118796" fill="#ff5b08" stroke="none" /><path d="M 84.10781606972428 86.27271002978789 l -4.281818816172943 -3.698533112087925 a26.658013746514182,26.658013746514182 0 0,0 0.3021101108814345,-0.34374584859493446 l 4.217697641332916 3.7714912384941597" fill="#ff3f05" stroke="none" /><path d="M 84.34580500576568 86.00192230759919 l -4.216532095723339 -3.7704490004229654 a26.656450174716966,26.656450174716966 0 0,0 0.30794838570383726,-0.33848922050554875 l 4.1511860091776365 3.8422757964861716" fill="#ff3f05" stroke="none" /><path d="M 84.58840730492382 85.73525988315684 l -5.536335590920572 -5.1243495702649 a28.543869716105117,28.543869716105117 0 0,0 0.33592623252034687,-0.35674201777252523 l 5.447553524663954 5.218633047981936" fill="#ff5a08" stroke="none" /><path d="M 85.08716467003674 85.21462403516908 l -8.135807384439312 -8.06627098702627 a32.45670499894446,32.45670499894446 0 0,0 0.3956751774136935,-0.39229335861157366 l 7.996140286895641 8.204744355866517" fill="#ff8f0d" stroke="none" /><path d="M 85.34317274990677 84.96080404539775 l -3.0721798852878632 -3.1523272065813384 a25.401756020603624,25.401756020603624 0 0,0 0.31489409521427997,-0.30166142002266844 l 3.017613304208283 3.204600756909575" fill="#ff2d04" stroke="none" /><path d="M 85.86807049272753 84.46653392183569 l -5.127149787057564 -5.635635760420471 a28.618927441776464,28.618927441776464 0 0,0 0.36623365230519483,-0.3274883902000709 l 5.029651107928977 5.722819680503943" fill="#ff5b08" stroke="none" /><path d="M 86.13680546590413 84.22622945171909 l -4.450320130991723 -5.0636473750699675 a27.741355502223804,27.741355502223804 0 0,0 0.36040052572383147,-0.3113053903562582 l 4.362740125505043 5.139296897890936" fill="#ff4f07" stroke="none" /><path d="M 86.40962598614128 83.9905735841838 l -5.085748221354978 -5.990998616824162 a28.85855580865876,28.85855580865876 0 0,0 0.3804185203265557,-0.31735865970993954 l 4.982155366866513 6.0774194604459835" fill="#ff5e08" stroke="none" /><path d="M 86.96720088162412 83.53348406188908 l -7.798266695236812 -9.852855220157707 a33.56549718234136,33.56549718234136 0 0,0 0.4548765095937175,-0.35371472515604674 l 7.627980241007849 9.98527099693456" fill="#ff9e0e" stroke="none" /><path d="M 87.25179093698888 83.31218511350988 l -3.256496651637578 -4.262858651940463 a26.364395057091752,26.364395057091752 0 0,0 0.3620045006613591,-0.2716549260976038 l 3.1828391620654664 4.318132605302067" fill="#ff3b05" stroke="none" /><path d="M 87.83215693770416 82.88440491214696 l -3.7633302143033833 -5.293595241172238 a27.494983054577595,27.494983054577595 0 0,0 0.3870310456679655,-0.27017772822201336 l 3.6719040774616523 5.357417785199377" fill="#ff4b07" stroke="none" /><path d="M 88.4268655584334 82.4767994020092 l -3.4794816508265516 -5.2683786965675665 a27.313684078957834,27.313684078957834 0 0,0 0.3934658033274888,-0.25503977999790567 l 3.388530215242037 5.327332318269379" fill="#ff4906" stroke="none" /><path d="M 88.72937992617638 82.28071324371311 l -4.138667823468164 -6.506673232945832 a28.71137911876627,28.71137911876627 0 0,0 0.41814141173510183,-0.2609511665278041 l 4.026362282943364 6.576760196315171" fill="#ff5c08" stroke="none" /><line stroke="#e1ed5e" stroke-width="0.3" x1="56.869717070023135" x2="54.33264160355391" y1="26.7553504044142" y2="22.446841604673864" /><path d="M 56.362301976729285 25.89364864446614 a86.0,86.0 0 0,1 42.16139366436587,-11.88097634709845" fill="none" id="id12" stroke="none" /><text fill="#e1ed5e" style="font-size:6.75px; font-family:Arial;" text-anchor="middle"><textPath startOffset="22.145653131862474" xlink:href="#id12">December</textPath></text><path d="M 89.97174638481275 81.54914285379989 l -3.274372191569377 -6.024476032261639 a27.856808639025722,27.856808639025722 0 0,0 0.4221118126395957,-0.2247507646881832 l 3.1704715631432197 6.079797264672397" fill="#ff5007" stroke="none" /><path d="M 90.28995756902619 81.37971332152246 l -3.577921199141369 -6.861135665947126 a28.738003795152657,28.738003795152657 0 0,0 0.43938051051977517,-0.22435081938148568 l 3.4596134669080114 6.921544437001446" fill="#ff5c08" stroke="none" /><path d="M 90.93487009805054 81.0573650232925 l -1.766887488688853 -3.692115292903493 a25.09311699488019,25.09311699488019 0 0,0 0.3901517096652708,-0.18261070003804022 l 1.7032470651520597 3.721902224512076" fill="#ff2904" stroke="none" /><path d="M 91.26138138417902 80.90454125486306 l -2.6881448360456566 -5.874081599662564 a27.45995025515315,27.45995025515315 0 0,0 0.43031912320106347,-0.19247627036956055 l 2.586912309988974 5.91936162094197" fill="#ff4b06" stroke="none" /><path d="M 92.25597844496254 80.48000691201159 l -2.7854933384378264 -7.021262831787281 a28.553615352367306,28.553615352367306 0 0,0 0.4571674994074516,-0.1768422098472502 l 2.6645535765368455 7.068044929772572" fill="#ff5a08" stroke="none" /><path d="M 92.592206182469 80.34994680014964 l -2.216165179409485 -5.878641434646016 a27.28250055468076,27.28250055468076 0 0,0 0.43965210274791744,-0.16144634194520247 l 2.1149239250074405 5.9158186255999405" fill="#ff4806" stroke="none" /><path d="M 92.93061703081487 80.22567764915836 l -1.8210541936543883 -5.09381268501637 a26.409543977662064,26.409543977662064 0 0,0 0.4282046327294072,-0.14895179923157906 l 1.7333437888799768 5.124322916816534" fill="#ff3c05" stroke="none" /><path d="M 93.61358852112211 79.99465700312896 l -2.1096340212505664 -6.6083985243621095 a27.936965241401253,27.936965241401253 0 0,0 0.4581121747626949,-0.1419243227752345 l 1.9958812136162556 6.643639434943986" fill="#ff5107" stroke="none" /><path d="M 93.95794788825049 79.88797359093562 l -2.7129673351945183 -9.030585914056626 a30.429298686169105,30.429298686169105 0 0,0 0.5015617652603063,-0.1459973200277887 l 2.557545557552588 9.075826928386936" fill="#ff740a" stroke="none" /><path d="M 94.6519064749342 79.69241777938228 l -2.013654524075474 -7.6461742151523735 a28.90688210806198,28.90688210806198 0 0,0 0.48094817132927997,-0.12225514441870992 l 1.8821010595208159 7.679614591406346" fill="#ff5f08" stroke="none" /><path d="M 95.35216902796891 79.52079915486377 l -1.7243902003316836 -7.59798139400604 a28.79120291268697,28.79120291268697 0 0,0 0.4829211303139742,-0.10525041267539725 l 1.593706653398591 7.626463264815152" fill="#ff5d08" stroke="none" /><path d="M 96.05791012581881 79.37332000966035 l -2.4768771558759353 -12.96006790820501 a34.19463075006593,34.19463075006593 0 0,0 0.577507039337904,-0.10524102033902791 l 2.2540353829869924 13.0006771024754" fill="#ffa60f" stroke="none" /><path d="M 96.41257539226777 79.30868818359171 l -1.3953810842686218 -8.048187285968197 a29.168256053794764,29.168256053794764 0 0,0 0.4940859464306284,-0.08130165446340729 l 1.2570176347849205 8.070954938927272" fill="#ff6209" stroke="none" /><path d="M 96.76829788921471 79.25015418208739 l -1.0150786470761461 -6.517533082517671 a27.596106589607405,27.596106589607405 0 0,0 0.468706590642252,-0.068883728026514 l 0.9030469508262092 6.53399788384307" fill="#ff4c07" stroke="none" /><path d="M 97.48249496171623 79.15144685158666 l -0.9558493881425756 -7.915804126514932 a28.97330565212217,28.97330565212217 0 0,0 0.4942902489096198,-0.055386253381120354 l 0.8198232376321565 7.931046140403024" fill="#ff6008" stroke="none" /><path d="M 97.84075906011542 79.11130261209362 l -0.7986380168035822 -7.726098346569643 a28.767265821558453,28.767265821558453 0 0,0 0.4916468696941261,-0.0465594697233572 l 0.6658915837244405 7.738669571798184" fill="#ff5d08" stroke="none" /><path d="M 98.1996594967304 79.07731436759882 l -0.554739090151236 -6.446909109782181 a27.470731993208673,27.470731993208673 0 0,0 0.47018251497998076,-0.03639510030149933 l 0.4439875803960381 6.455481977078734" fill="#ff4b07" stroke="none" /><path d="M 98.9189461498227 79.02784411241856 l -0.48514089880315464 -9.411603830348058 a30.424099338987986,30.424099338987986 0 0,0 0.5218084208964329,-0.022408698796742392 l 0.3235067173059017 9.41854509757063" fill="#ff740a" stroke="none" /></svg>