<?xml version="1.0" encoding="utf-8" ?>
<svg baseProfile="full" height="200mm" version="1.1" viewBox="0,0,200,200" width="200mm" xmlns="http://www.w3.org/2000/svg" xmlns:ev="http://www.w3.org/2001/xml-events" xmlns:xlink="http://www.w3.org/1999/xlink"><defs /><rect fill="#1a1a1a" height="200" width="200" x="0" y="0" /><rect fill="#1a1a1a" height="200" width="180" x="10" y="0" /><text alignment-baseline="middle" fill="#e1ed5e" style="dominant-baseline: central; font-size:9.0px; font-family:Arial;" text-anchor="middle" x="100.0" y="100.0">2026</text><line stroke="#e1ed5e" stroke-width="0.3" x1="100.0" x2="100.0" y1="15.0" y2="10.0" /><path d="M 100.0 14.0 a86.0,86.0 0 0,1 42.46469731375804,11.215312516191453" fill="none" id="id25" stroke="none" /><text fill="#e1ed5e" style="font-size:6.75px; font-family:Arial;" text-anchor="middle"><textPath startOffset="22.20632615414155" xlink:href="#id25">January</textPath></text><path d="M 100.0 79.0 l 0.0 -47.4102862574874 a68.4102862574874,68.4102862574874 0 0,0 1.1775706220727336,0.010135722116493455 l -0.8160901428002053 47.40326191197946" fill="#35ff61" stroke="none" /><path d="M 101.80526077348638 79.07773832637324 l 2.99520448088446 -34.7132407879559 a55.84222059348278,55.84222059348278 0 0,0 0.956962478051341,0.09087511818312265 l -3.592292086026045 34.6565401252576" fill="#aaff21" stroke="none" /><path d="M 102.88285421437855 79.19881850522331 l 6.102526239700198 -44.03266570175992 a65.4535316404577,65.4535316404577 0 0,0 1.114676821672482,0.16427438802841252 l -6.859572041801336 43.92109682957054" fill="#30ff34" stroke="none" /><path d="M 103.2404852339499 79.25152402106235 l 6.874622199330723 -44.017461358162166 a65.5510643509314,65.5510643509314 0 0,0 1.11334048383278,0.1837107193017838 l -7.6312918893023785 43.89260437592076" fill="#30ff36" stroke="none" /><path d="M 105.36241919743992 79.69619591428918 l 10.975416610712585 -41.55637603441224 a63.98130010704862,63.98130010704862 0 0,0 1.0624006855970984,0.29039423979208734 l -11.689115185533394 41.361295253793855" fill="#3dff2e" stroke="none" /><path d="M 106.0581310904928 79.89281104454417 l 7.031042442479276 -23.33632218137765 a45.3725150688435,45.3725150688435 0 0,0 0.7458693275556252,0.23174523077737888 l -7.431697142745619 23.21183681571775" fill="#ffb510" stroke="none" /><path d="M 106.74666289553966 80.11325718540242 l 11.939824502392192 -35.19432092679226 a58.16449427405104,58.16449427405104 0 0,0 0.9453613628710617,0.3298180168487629 l -12.543867869326528 34.98358205677129" fill="#89ff24" stroke="none" /><path d="M 107.08798089147638 80.2323363322302 l 15.002085532790568 -41.83930313411838 a65.44760800180154,65.44760800180154 0 0,0 1.0571897795294873,0.38937191779227237 l -15.720057638092632 41.57486794851979" fill="#30ff34" stroke="none" /><path d="M 108.09893153111575 80.62456947434976 l 14.121517872370589 -33.78352902498864 a57.61617266184345,57.61617266184345 0 0,0 0.9117519042613421,0.3903645830144968 l -14.700953534422247 33.53544491401135" fill="#91ff24" stroke="none" /><path d="M 109.08828744355905 81.06846463323043 l 13.281736242161989 -27.66678111383845 a51.68966104093376,51.68966104093376 0 0,0 0.7987990574416417,0.3919672283403957 l -13.756006566614063 27.434058725363222" fill="#e6ff1a" stroke="none" /><line stroke="#e1ed5e" stroke-width="0.3" x1="143.23703022742887" x2="145.7803849466894" y1="26.81831364943548" y2="22.513508569990506" /><path d="M 143.74570117128098 25.957352633546492 a86.0,86.0 0 0,1 28.547481713284135,27.462654790039103" fill="none" id="id26" stroke="none" /><text fill="#e1ed5e" style="font-size:6.75px; font-family:Arial;" text-anchor="middle"><textPath startOffset="19.985693538727396" xlink:href="#id26">February</textPath></text><path d="M 110.68208982089419 81.91981866633111 l 28.12756488144312 -47.607863447871445 a76.2961894548889,76.2961894548889 0 0,0 1.124961640870451,0.6777768013427343 l -28.94288858853121 47.1166400370701" fill="#41ffce" stroke="none" /><path d="M 112.19680574252982 82.90503203632743 l 21.313111980418597 -29.872326755271455 a57.696112165508346,57.696112165508346 0 0,0 0.8034999157609556,0.5837768600490556 l -21.824157212533343 29.501030660405725" fill="#90ff24" stroke="none" /><path d="M 114.16331599549186 84.49514656593476 l 10.21352740728684 -11.180944176151693 a36.14363413351035,36.14363413351035 0 0,0 0.45574044616938164,0.4235610763263325 l -10.404475737251067 11.00347851375072" fill="#ff1502" stroke="none" /><path d="M 114.42810811169701 84.74124197986012 l 24.435617235694053 -25.842415899970693 a56.56585229171946,56.56585229171946 0 0,0 0.7017310648256101,0.6750647283814429 l -24.87683154413208 25.41796808482695" fill="#9fff22" stroke="none" /><path d="M 116.15771136456269 86.58626213691792 l 47.87709624529449 -39.746397505802484 a83.22533615474049,83.22533615474049 0 0,0 0.9055768956574272,1.110130197458575 l -48.554171633028325 38.91638313873581" fill="#4cdbff" stroke="none" /><path d="M 117.65298651832404 88.62581576622439 l 16.491671237124873 -10.625924784976558 a40.618498865341124,40.618498865341124 0 0,0 0.37363681250946984,0.5910037083153727 l -16.6721356458803 10.340473428946979" fill="#ff6509" stroke="none" /><line stroke="#e1ed5e" stroke-width="0.3" x1="172.23445277983987" x2="176.4835382374775" y1="55.19839476539836" y2="52.563006222186495" /><path d="M 173.08426987136738 54.67131705675599 a86.0,86.0 0 0,1 12.851231095245387,41.99856678651699" fill="none" id="id27" stroke="none" /><text fill="#e1ed5e" style="font-size:6.75px; font-family:Arial;" text-anchor="middle"><textPath startOffset="22.20632615414155" xlink:href="#id27">March</textPath></text><path d="M 118.73160827565052 90.50648371742162 l 30.522414243822908 -15.469309006637996 a55.21866877034194,55.21866877034194 0 0,0 0.4223964874284656,0.8515255436727486 l -30.784170744204783 14.941623874466298" fill="#b2ff20" stroke="none" /><path d="M 118.89224826269711 90.83032412892265 l 27.542086713116486 -13.368022929862189 a51.61487510289972,51.61487510289972 0 0,0 0.38106968859932105,0.8026299490770546 l -27.768114595557563 12.891950565144594" fill="#e7ff1a" stroke="none" /><path d="M 119.85752413597 93.16781622104841 l 15.7462669616232 -5.417663802274822 a37.65220719007499,37.65220719007499 0 0,0 0.20558590342285787,0.614675683766645 l -15.837190158817826 5.145815015585862" fill="#ff3104" stroke="none" /><path d="M 119.97218684219823 93.5106431181261 l 59.91656052659467 -19.46807064562169 a84.0,84.0 0 0,0 0.4349780649271753,1.3789993342943234 l -60.24279407529006 18.433821144900946" fill="#4dd2ff" stroke="none" /><path d="M 120.28053869075195 94.5502522615342 l 35.4736256900624 -9.532405146011032 a57.73206865215125,57.73206865215125 0 0,0 0.24963255249194494,0.961936056278423 l -35.63245457442464 8.920372664183759" fill="#8fff24" stroke="none" /><path d="M 120.53481517161879 95.60439243477599 l 40.82839534849204 -8.739577248195953 a62.75330019543306,62.75330019543306 0 0,0 0.2170089925642815,1.0582129169184846 l -40.972783636971315 8.035488675114058" fill="#4dff2c" stroke="none" /><path d="M 120.6074358757038 95.95851677861258 l 24.631487138226163 -4.830670957192121 a46.10070796884543,46.10070796884543 0 0,0 0.14601691513289214,0.7800281993251005 l -24.710989777268914 4.405964680404458" fill="#ffc111" stroke="none" /><path d="M 120.73433829027371 96.67025291283417 l 17.781777392168213 -2.855592527106478 a39.00960898813439,39.00960898813439 0 0,0 0.10076387556398127,0.6639080417903352 l -17.828297161171495 2.5490853729240603" fill="#ff4906" stroke="none" /><path d="M 120.91429891909075 98.10471618934814 l 42.80963941552012 -3.879471018271484 a63.98506161759527,63.98506161759527 0 0,0 0.08996152248099688,1.0977584384487118 l -42.87007542182061 3.1419986626150034" fill="#3dff2e" stroke="none" /><path d="M 120.94382443527127 98.46500227214037 l 36.75116768395977 -2.6935366587614333 a57.8497417340559,57.8497417340559 0 0,0 0.06423913275168489,0.9937509507554078 l -36.792087407715876 2.0605266437529903" fill="#8eff24" stroke="none" /><path d="M 120.98425023603335 99.18683210126433 l 24.68858174218815 -0.95671572308956 a45.70711179833678,45.70711179833678 0 0,0 0.023698714229061016,0.7864449508439102 l -24.701392150872852 0.5316006248206506" fill="#ffba11" stroke="none" /><line stroke="#e1ed5e" stroke-width="0.3" x1="184.98032266829074" x2="189.97916517819016" y1="98.17113171792111" y2="98.06355123074" /><path d="M 185.9800911702706 98.14961562048488 a86.0,86.0 0 0,1 -9.607161424134198,41.387399972396054" fill="none" id="id28" stroke="none" /><text fill="#e1ed5e" style="font-size:6.75px; font-family:Arial;" text-anchor="middle"><textPath startOffset="21.466115282336823" xlink:href="#id28">April</textPath></text><path d="M 120.99980553446 99.90962569577887 l 23.986901010785328 -0.1032295030405666 a44.987123137873624,44.987123137873624 0 0,0 -0.0033326947334786526,0.774400886534525 l -23.985124018762345 -0.3096808616976431" fill="#ffaf10" stroke="none" /><path d="M 120.99824983174949 100.27111621757518 l 30.88443289804404 0.3987604060511688 a51.88700706276377,51.88700706276377 0 0,0 -0.019217804209369145,0.8929758466977651 l -30.872993031149665 -0.9303260685390488" fill="#e3ff1b" stroke="none" /><path d="M 120.9904718944345 100.63252640178507 l 35.56096518453922 1.071593314590736 a56.577107205166165,56.577107205166165 0 0,0 -0.03771232525338812,0.9731875438397062 l -35.53725072643463 -1.6835581054444484" fill="#9fff22" stroke="none" /><path d="M 120.9764740272857 100.99374915477107 l 25.179005326795572 1.1928418107319512 a46.207244610076486,46.207244610076486 0 0,0 -0.044477001381056626,0.7941667376182937 l -25.15474197452699 -1.626080264685668" fill="#ffc212" stroke="none" /><path d="M 120.92983693683757 101.71520430193887 l 35.4736496358766 2.907072646793454 a56.59256790205875,56.59256790205875 0 0,0 -0.0879216845486521,0.9702084625985679 l -35.41835335505087 -3.517262497940592" fill="#9fff22" stroke="none" /><path d="M 120.81339534386255 102.79330883721812 l 13.854213403479203 1.8593360714716682 a34.97842479165011,34.97842479165011 0 0,0 -0.08522401420996269,0.5960565568897477 l -13.82015533825264 -2.097538100341825" fill="#ff0000" stroke="none" /><path d="M 120.76222939487914 103.15116336523771 l 30.021708678700538 4.556510129566972 a51.3655195336686,51.3655195336686 0 0,0 -0.14019911742813593,0.8730200380555108 l -29.938827806911114 -5.072609397315688" fill="#ebff1a" stroke="none" /><path d="M 120.70491114924044 103.5080841355445 l 35.08492156075911 5.944524747629137 a56.584956026385576,56.584956026385576 0 0,0 -0.17097698904546327,0.9589297543036193 l -34.977398129374464 -6.547573252665974" fill="#9fff22" stroke="none" /><line stroke="#e1ed5e" stroke-width="0.3" x1="174.80103733775053" x2="179.2010983576182" y1="140.37084112569926" y2="142.7455964860345" /><path d="M 175.68104954172406 140.8457921977663 a86.0,86.0 0 0,1 -30.038265399797805,32.042727171017184" fill="none" id="id29" stroke="none" /><text fill="#e1ed5e" style="font-size:6.75px; font-family:Arial;" text-anchor="middle"><textPath startOffset="22.206326154141568" xlink:href="#id29">May</textPath></text><line stroke="#e1ed5e" stroke-width="0.3" x1="143.8653032363475" x2="146.44561519142675" y1="172.8068346515853" y2="177.08958963109032" /><path d="M 144.38136562736335 173.6633856474863 a86.0,86.0 0 0,1 -40.68145358897372,12.25698825130547" fill="none" id="id30" stroke="none" /><text fill="#e1ed5e" style="font-size:6.75px; font-family:Arial;" text-anchor="middle"><textPath startOffset="21.466115282336833" xlink:href="#id30">June</textPath></text><line stroke="#e1ed5e" stroke-width="0.3" x1="102.19456741930631" x2="102.32365962044197" y1="184.97166512339345" y2="189.96999836594603" /><path d="M 102.22038585953345 185.97133177190398 a86.0,86.0 0 0,1 -42.740103519485714,-10.115201625700543" fill="none" id="id31" stroke="none" /><text fill="#e1ed5e" style="font-size:6.75px; font-family:Arial;" text-anchor="middle"><textPath startOffset="22.20632615414155" xlink:href="#id31">July</textPath></text><line stroke="#e1ed5e" stroke-width="0.3" x1="58.666819895761336" x2="56.23545636021788" y1="174.27360380694188" y2="178.64263932499728" /><path d="M 58.180547188652646 175.14741091055294 a86.0,86.0 0 0,1 -31.652253787137756,-30.449443065178592" fill="none" id="id32" stroke="none" /><text fill="#e1ed5e" style="font-size:6.75px; font-family:Arial;" text-anchor="middle"><textPath startOffset="22.20632615414155" xlink:href="#id32">August</textPath></text><line stroke="#e1ed5e" stroke-width="0.3" x1="26.63291911575756" x2="22.317208475507996" y1="142.92168965132927" y2="145.44649492493687" /><path d="M 25.769776987707644 143.4266507060508 a86.0,86.0 0 0,1 -11.730757126820373,-40.83630448921669" fill="none" id="id33" stroke="none" /><text fill="#e1ed5e" style="font-size:6.75px; font-family:Arial;" text-anchor="middle"><textPath startOffset="21.46611528233685" xlink:href="#id33">September</textPath></text><line stroke="#e1ed5e" stroke-width="0.3" x1="15.007084014347285" x2="10.007500721073583" y1="101.09737516637583" y2="101.16192664675087" /><path d="M 14.007167355692545 101.11028546245083 a86.0,86.0 0 0,1 10.666146001902534,-42.60595125391555" fill="none" id="id34" stroke="none" /><text fill="#e1ed5e" style="font-size:6.75px; font-family:Arial;" text-anchor="middle"><textPath startOffset="22.20632615414155" xlink:href="#id34">October</textPath></text><line stroke="#e1ed5e" stroke-width="0.3" x1="26.266209847984243" x2="21.928928074336255" y1="57.711370442889674" y2="55.22380399835377" /><path d="M 25.398753493254645 57.213857153982495 a86.0,86.0 0 0,1 29.58750427330803,-30.492523968695096" fill="none" id="id35" stroke="none" /><text fill="#e1ed5e" style="font-size:6.75px; font-family:Arial;" text-anchor="middle"><textPath startOffset="21.46611528233685" xlink:href="#id35">November</textPath></text><line stroke="#e1ed5e" stroke-width="0.3" x1="56.762969772571076" x2="54.21961505331055" y1="26.818313649435495" y2="22.513508569990535" /><path d="M 56.25429882871897 25.957352633546506 a86.0,86.0 0 0,1 42.265352541879196,-11.944610805530505" fill="none" id="id36" stroke="none" /><text fill="#e1ed5e" style="font-size:6.75px; font-family:Arial;" text-anchor="middle"><textPath startOffset="22.20632615414155" xlink:href="#id36">December</textPath></text></svg>